<svg xmlns="http://www.w3.org/2000/svg" viewBox="0 0 219.01944 218.71572"><defs><style>.cls-1,.cls-2{fill:none;}.cls-2{stroke:#000;stroke-linecap:round;stroke-linejoin:bevel;}</style></defs><title>f_series</title><g id="Layer_2" data-name="Layer 2"><g id="Layer_1-2" data-name="Layer 1"><rect class="cls-1" width="219.01944" height="218.71572"/><path d="M4.98466,214.24023a1.15035,1.15035,0,0,1-1.14356-1.14355V192.48633a1.103,1.103,0,0,1,1.14356-1.14356h13.75a1.14386,1.14386,0,0,1,.82128.30762,1.06507,1.06507,0,0,1,.32227.80664,1.04145,1.04145,0,0,1-.32227.76172,1.11117,1.11117,0,0,1-.82128.32227H6.12821v8.09277H15.304a1.11191,1.11191,0,0,1,.82129.32226,1.13312,1.13312,0,0,1,0,1.583,1.11188,1.11188,0,0,1-.82129.32227H6.12821v9.23535a1.12633,1.12633,0,0,1-.32324.80664A1.086,1.086,0,0,1,4.98466,214.24023Z"/><path d="M30.98954,214.38672a8.29389,8.29389,0,0,1-4.19238-1.05567,7.66294,7.66294,0,0,1-2.90235-2.90234,8.9107,8.9107,0,0,1,0-8.41406,7.663,7.663,0,0,1,2.90235-2.90235,8.82536,8.82536,0,0,1,8.37109,0,7.70092,7.70092,0,0,1,2.88769,2.90235,8.59293,8.59293,0,0,1,1.085,4.22168,8.2145,8.2145,0,0,1-1.07032,4.19238,7.80919,7.80919,0,0,1-2.90234,2.90234A8.21731,8.21731,0,0,1,30.98954,214.38672Zm0-2.05176a5.917,5.917,0,0,0,3.0498-.792,5.62586,5.62586,0,0,0,2.11035-2.16992,6.36183,6.36183,0,0,0,.7627-3.13672,6.44529,6.44529,0,0,0-.7627-3.15137,5.59832,5.59832,0,0,0-2.11035-2.18457,6.26622,6.26622,0,0,0-6.09863,0,5.69649,5.69649,0,0,0-2.125,2.18457,6.34819,6.34819,0,0,0-.77734,3.15137,6.26625,6.26625,0,0,0,.77734,3.13672,5.72572,5.72572,0,0,0,2.125,2.16992A5.91346,5.91346,0,0,0,30.98954,212.335Z"/><path d="M50.51493,214.416a7.86187,7.86187,0,0,1-3.72363-.86524,6.35412,6.35412,0,0,1-2.59473-2.53516,8.11523,8.11523,0,0,1-.95215-4.07519v-7.623a1.10059,1.10059,0,0,1,1.11426-1.11426,1.11121,1.11121,0,0,1,.82031.32227,1.07916,1.07916,0,0,1,.32227.792v7.623a5.83137,5.83137,0,0,0,.68945,2.99023,4.3944,4.3944,0,0,0,1.876,1.75879,5.9723,5.9723,0,0,0,2.68261.58692,5.90024,5.90024,0,0,0,2.59473-.55762,4.62679,4.62679,0,0,0,1.833-1.52441,3.756,3.756,0,0,0,.67383-2.19922h1.6123a6.5355,6.5355,0,0,1-3.48828,5.58593A7.193,7.193,0,0,1,50.51493,214.416Zm6.45019-.17579a1.09179,1.09179,0,0,1-.80664-.30761,1.13061,1.13061,0,0,1-.30761-.83594v-13.7793a1.05607,1.05607,0,0,1,1.11425-1.11426,1.14387,1.14387,0,0,1,.82129.30762,1.06507,1.06507,0,0,1,.32227.80664v13.7793a1.10193,1.10193,0,0,1-.32227.83594A1.14386,1.14386,0,0,1,56.96512,214.24023Z"/><path d="M64.50028,214.24023A1.01764,1.01764,0,0,1,63.386,213.126v-13.8086a1.11612,1.11612,0,1,1,2.22852,0V213.126a1.01884,1.01884,0,0,1-1.11426,1.11425Zm-.17578-9.87988a6.85217,6.85217,0,0,1,.95215-3.25488,6.418,6.418,0,0,1,2.25781-2.25781,5.97746,5.97746,0,0,1,3.09277-.82032,4.60363,4.60363,0,0,1,2.082.38086.92046.92046,0,0,1,.55665,1.11426.8683.8683,0,0,1-.39551.58594,1.21264,1.21264,0,0,1-.67383.11719q-.397-.02784-.89453-.0586a6.52218,6.52218,0,0,0-2.917.33789,4.42245,4.42245,0,0,0-2.02344,1.48047,3.84665,3.84665,0,0,0-.74707,2.375Z"/><path d="M78.39676,195.1543a1.52022,1.52022,0,0,1-1.11425-.46973,1.55543,1.55543,0,0,1-.46875-1.14355,1.4615,1.4615,0,0,1,.4834-1.15723,1.66057,1.66057,0,0,1,1.1289-.42578,1.62191,1.62191,0,0,1,1.09961.42578,1.4615,1.4615,0,0,1,.4834,1.15723,1.60221,1.60221,0,0,1-1.61231,1.61328Zm.0293,19.08593a1.06318,1.06318,0,0,1-1.14355-1.14355v-13.75a1.06319,1.06319,0,0,1,1.14355-1.14356,1.09178,1.09178,0,0,1,.80664.30762,1.13058,1.13058,0,0,1,.30762.83594v13.75a1.13058,1.13058,0,0,1-.30762.83594A1.09178,1.09178,0,0,1,78.42606,214.24023Z"/><path d="M92.55594,214.38672a8.364,8.364,0,0,1-4.207-1.041,7.47658,7.47658,0,0,1-2.873-2.88769,8.44551,8.44551,0,0,1-1.041-4.22168A8.82592,8.82592,0,0,1,85.41727,202a7.41256,7.41256,0,0,1,2.71192-2.8877,7.49747,7.49747,0,0,1,3.9873-1.05566,7.30264,7.30264,0,0,1,3.88477,1.01172,6.83315,6.83315,0,0,1,2.56543,2.7998,8.8762,8.8762,0,0,1,.90918,4.0752.9825.9825,0,0,1-.29395.74707,1.057,1.057,0,0,1-.76172.2793H85.95926v-1.877H98.65458l-1.26074.90918a6.70656,6.70656,0,0,0-.61524-3.04883,5.02461,5.02461,0,0,0-1.833-2.11132,5.12488,5.12488,0,0,0-2.8291-.7627,5.39769,5.39769,0,0,0-2.93164.792,5.28007,5.28007,0,0,0-1.95019,2.18457,7.08142,7.08142,0,0,0-.68848,3.18067,6.326,6.326,0,0,0,.77734,3.166,5.72567,5.72567,0,0,0,2.125,2.16993,6.02772,6.02772,0,0,0,3.10742.792,6.51086,6.51086,0,0,0,2.126-.36719,5.158,5.158,0,0,0,1.71484-.92285,1.1972,1.1972,0,0,1,.7334-.2793,1.03429,1.03429,0,0,1,.70313.2207,1.09108,1.09108,0,0,1,.39648.76172.84371.84371,0,0,1-.33789.70411A7.97251,7.97251,0,0,1,95.43,213.84473,8.42434,8.42434,0,0,1,92.55594,214.38672Z"/><path d="M104.40165,214.24023a1.01764,1.01764,0,0,1-1.11426-1.11425v-13.8086a1.11612,1.11612,0,1,1,2.22852,0V213.126a1.01884,1.01884,0,0,1-1.11426,1.11425Zm-.17578-9.87988a6.85216,6.85216,0,0,1,.95214-3.25488,6.41807,6.41807,0,0,1,2.25782-2.25781,5.97746,5.97746,0,0,1,3.09277-.82032,4.60369,4.60369,0,0,1,2.082.38086.92046.92046,0,0,1,.55664,1.11426.86823.86823,0,0,1-.39551.58594,1.21259,1.21259,0,0,1-.67382.11719q-.397-.02784-.89453-.0586a6.52222,6.52222,0,0,0-2.917.33789,4.42248,4.42248,0,0,0-2.02343,1.48047,3.84665,3.84665,0,0,0-.74707,2.375Z"/><path d="M132.63407,214.5332a10.74858,10.74858,0,0,1-3.47363-.542,8.38626,8.38626,0,0,1-2.77051-1.53906,6.79675,6.79675,0,0,1-1.78906-2.31641.88191.88191,0,0,1-.01465-.86523,1.16354,1.16354,0,0,1,.748-.542,1.063,1.063,0,0,1,.80665.08789,1.35709,1.35709,0,0,1,.60058.61523,4.71309,4.71309,0,0,0,1.29,1.52539,6.18509,6.18509,0,0,0,2.02344,1.04,8.5859,8.5859,0,0,0,2.5791.36719,6.95772,6.95772,0,0,0,2.75684-.51367,4.31867,4.31867,0,0,0,1.89062-1.49512,4.05668,4.05668,0,0,0,.68848-2.38965,4.1565,4.1565,0,0,0-1.31934-3.07812,7.03393,7.03393,0,0,0-4.13379-1.64161,9.60605,9.60605,0,0,1-5.36523-2.126,5.40793,5.40793,0,0,1-1.93457-4.207,5.16071,5.16071,0,0,1,.95312-3.10743,6.13827,6.13827,0,0,1,2.624-2.03808,9.64888,9.64888,0,0,1,3.83984-.71778,7.945,7.945,0,0,1,5.2334,1.86133,7.78394,7.78394,0,0,1,1.59863,1.832,1.18093,1.18093,0,0,1,.19043.90918,1.02351,1.02351,0,0,1-.51367.67481,1.22336,1.22336,0,0,1-1.583-.499,6.63594,6.63594,0,0,0-1.09961-1.27539,4.89292,4.89292,0,0,0-1.59765-.95214,6.86489,6.86489,0,0,0-2.25782-.38184,6.38308,6.38308,0,0,0-3.72265.98242,3.26689,3.26689,0,0,0-1.40723,2.8584,3.36254,3.36254,0,0,0,.52734,1.832,4.16988,4.16988,0,0,0,1.74414,1.4375,11.05314,11.05314,0,0,0,3.26954.89356,9.63887,9.63887,0,0,1,5.43847,2.24316,5.93937,5.93937,0,0,1,1.77344,4.4707,6.613,6.613,0,0,1-.57129,2.81446,5.68659,5.68659,0,0,1-1.6123,2.06738,7.42049,7.42049,0,0,1-2.4336,1.27539A9.83959,9.83959,0,0,1,132.63407,214.5332Z"/><path d="M151.98368,214.38672a8.364,8.364,0,0,1-4.207-1.041,7.47661,7.47661,0,0,1-2.873-2.88769,8.44551,8.44551,0,0,1-1.041-4.22168A8.8258,8.8258,0,0,1,144.845,202a7.41247,7.41247,0,0,1,2.71191-2.8877,7.49748,7.49748,0,0,1,3.98731-1.05566,7.30258,7.30258,0,0,1,3.88476,1.01172,6.83309,6.83309,0,0,1,2.56543,2.7998,8.8762,8.8762,0,0,1,.90918,4.0752.98249.98249,0,0,1-.29394.74707,1.057,1.057,0,0,1-.76172.2793H145.387v-1.877h12.69531l-1.26074.90918a6.70669,6.70669,0,0,0-.61523-3.04883,5.02475,5.02475,0,0,0-1.833-2.11132,5.12492,5.12492,0,0,0-2.8291-.7627,5.39769,5.39769,0,0,0-2.93164.792,5.28,5.28,0,0,0-1.9502,2.18457,7.08156,7.08156,0,0,0-.68848,3.18067,6.32586,6.32586,0,0,0,.77735,3.166,5.7256,5.7256,0,0,0,2.125,2.16993,6.02767,6.02767,0,0,0,3.10742.792,6.5109,6.5109,0,0,0,2.126-.36719,5.15806,5.15806,0,0,0,1.71484-.92285,1.19716,1.19716,0,0,1,.7334-.2793,1.03427,1.03427,0,0,1,.70312.2207,1.09109,1.09109,0,0,1,.39649.76172.84373.84373,0,0,1-.33789.70411,7.97245,7.97245,0,0,1-2.46192,1.36328A8.42433,8.42433,0,0,1,151.98368,214.38672Z"/><path d="M163.82938,214.24023a1.01764,1.01764,0,0,1-1.11426-1.11425v-13.8086a1.11612,1.11612,0,1,1,2.22852,0V213.126a1.01884,1.01884,0,0,1-1.11426,1.11425Zm-.17578-9.87988a6.85217,6.85217,0,0,1,.95215-3.25488,6.418,6.418,0,0,1,2.25781-2.25781,5.97752,5.97752,0,0,1,3.09278-.82032,4.60369,4.60369,0,0,1,2.082.38086.92047.92047,0,0,1,.55664,1.11426.86827.86827,0,0,1-.39551.58594,1.21264,1.21264,0,0,1-.67383.11719q-.397-.02784-.89453-.0586a6.52218,6.52218,0,0,0-2.917.33789,4.42245,4.42245,0,0,0-2.02344,1.48047,3.84665,3.84665,0,0,0-.74707,2.375Z"/><path d="M177.72587,195.1543a1.52022,1.52022,0,0,1-1.11426-.46973,1.55543,1.55543,0,0,1-.46875-1.14355,1.4615,1.4615,0,0,1,.4834-1.15723,1.66059,1.66059,0,0,1,1.1289-.42578,1.62191,1.62191,0,0,1,1.09961.42578,1.4615,1.4615,0,0,1,.4834,1.15723,1.60221,1.60221,0,0,1-1.6123,1.61328Zm.02929,19.08593a1.06318,1.06318,0,0,1-1.14355-1.14355v-13.75a1.06319,1.06319,0,0,1,1.14355-1.14356,1.09177,1.09177,0,0,1,.80664.30762,1.13058,1.13058,0,0,1,.30762.83594v13.75a1.13058,1.13058,0,0,1-.30762.83594A1.09176,1.09176,0,0,1,177.75516,214.24023Z"/><path d="M191.886,214.38672a8.364,8.364,0,0,1-4.207-1.041,7.47661,7.47661,0,0,1-2.87305-2.88769,8.44561,8.44561,0,0,1-1.041-4.22168A8.82592,8.82592,0,0,1,184.74735,202a7.41254,7.41254,0,0,1,2.71191-2.8877,7.49753,7.49753,0,0,1,3.98731-1.05566,7.30264,7.30264,0,0,1,3.88477,1.01172,6.83306,6.83306,0,0,1,2.56542,2.7998,8.8762,8.8762,0,0,1,.90918,4.0752.98249.98249,0,0,1-.29394.74707,1.057,1.057,0,0,1-.76172.2793H185.28934v-1.877h12.69532l-1.26075.90918a6.70656,6.70656,0,0,0-.61523-3.04883,5.02475,5.02475,0,0,0-1.833-2.11132,5.12488,5.12488,0,0,0-2.8291-.7627,5.39769,5.39769,0,0,0-2.93164.792,5.28016,5.28016,0,0,0-1.9502,2.18457,7.08155,7.08155,0,0,0-.68847,3.18067,6.326,6.326,0,0,0,.77734,3.166,5.72567,5.72567,0,0,0,2.125,2.16993,6.02772,6.02772,0,0,0,3.10742.792,6.5109,6.5109,0,0,0,2.126-.36719,5.158,5.158,0,0,0,1.71484-.92285,1.1972,1.1972,0,0,1,.7334-.2793,1.03431,1.03431,0,0,1,.70313.2207,1.09108,1.09108,0,0,1,.39648.76172.84371.84371,0,0,1-.33789.70411,7.97251,7.97251,0,0,1-2.46191,1.36328A8.42434,8.42434,0,0,1,191.886,214.38672Z"/><path d="M208.2161,214.38672a10.45881,10.45881,0,0,1-3.42969-.58594,6.44118,6.44118,0,0,1-2.75586-1.75976.93932.93932,0,0,1-.26464-.791,1.18767,1.18767,0,0,1,.44043-.7627,1.16847,1.16847,0,0,1,1.583.14649,4.48356,4.48356,0,0,0,1.86133,1.26074,7.18,7.18,0,0,0,2.56543.44043,5.18359,5.18359,0,0,0,3.1377-.74805,2.30535,2.30535,0,0,0,.99609-1.80273,2.0565,2.0565,0,0,0-.99609-1.74512,8.4846,8.4846,0,0,0-3.28418-1.06933,8.82263,8.82263,0,0,1-4.33887-1.64258,3.549,3.549,0,0,1-1.37793-2.78516,3.88461,3.88461,0,0,1,.791-2.49219,4.79859,4.79859,0,0,1,2.11132-1.49511,8.1572,8.1572,0,0,1,2.90235-.49805,7.84714,7.84714,0,0,1,3.38672.67383,6.19429,6.19429,0,0,1,2.30078,1.81836,1.03151,1.03151,0,0,1,.23535.791.95355.95355,0,0,1-.46973.67481,1.17936,1.17936,0,0,1-.80566.13183,1.31169,1.31169,0,0,1-.77735-.4248,4.45246,4.45246,0,0,0-1.70019-1.24609,5.83925,5.83925,0,0,0-2.22852-.39649,4.50981,4.50981,0,0,0-2.58007.66016,1.95261,1.95261,0,0,0-.96778,1.65625,1.9195,1.9195,0,0,0,.36719,1.17285,2.96451,2.96451,0,0,0,1.26074.87988,11.29587,11.29587,0,0,0,2.50684.64453,11.13163,11.13163,0,0,1,3.47363,1.041,4.5102,4.5102,0,0,1,1.81738,1.6123,3.89133,3.89133,0,0,1,.543,2.00879,3.83085,3.83085,0,0,1-.80664,2.418,5.29054,5.29054,0,0,1-2.22754,1.62793A8.52779,8.52779,0,0,1,208.2161,214.38672Z"/><circle class="cls-2" cx="79.24409" cy="82" r="74.19544"/><polyline class="cls-2" points="79.244 82 144.655 117.019 155.667 145.357 167.854 105.126 178.499 120.176 177.295 83.998"/><ellipse class="cls-2" cx="144.78716" cy="117.35597" rx="29.67818" ry="30.04013" transform="translate(-32.77824 60.73201) rotate(-21.3392)"/><circle class="cls-2" cx="155.66729" cy="145.3566" r="42.02639"/><circle class="cls-2" cx="167.92396" cy="105.23821" r="18.26878"/><circle class="cls-2" cx="178.49914" cy="120.17586" r="36.27333"/></g></g></svg>