<svg xmlns="http://www.w3.org/2000/svg" viewBox="0 0 219.01944 218.71572"><defs><style>.cls-1,.cls-2{fill:none;}.cls-2{stroke:#000;stroke-linecap:round;stroke-linejoin:bevel;}</style></defs><title>f_series</title><g id="Layer_2" data-name="Layer 2"><g id="Layer_1-2" data-name="Layer 1"><rect class="cls-1" width="219.01944" height="218.71572"/><path d="M17.2427,176.65084a1.49572,1.49572,0,0,1-1.48686-1.48686V148.36625a1.43406,1.43406,0,0,1,1.48686-1.48686H35.12055a1.48729,1.48729,0,0,1,1.06784.4,1.3848,1.3848,0,0,1,.419,1.0488,1.3541,1.3541,0,0,1-.419.99039,1.44476,1.44476,0,0,1-1.06784.419h-16.391v10.52228H30.66a1.44572,1.44572,0,0,1,1.06785.419,1.4733,1.4733,0,0,1,0,2.05824,1.44572,1.44572,0,0,1-1.06785.419H18.72956V175.164a1.46444,1.46444,0,0,1-.42029,1.0488A1.412,1.412,0,0,1,17.2427,176.65084Z"/><path d="M51.05444,176.8413a10.78392,10.78392,0,0,1-5.451-1.37258,9.96357,9.96357,0,0,1-3.77365-3.77365,11.58572,11.58572,0,0,1,0-10.94,9.9635,9.9635,0,0,1,3.77365-3.77365,11.47472,11.47472,0,0,1,10.88416,0,10.01266,10.01266,0,0,1,3.7546,3.77365,11.17268,11.17268,0,0,1,1.41068,5.489,10.68058,10.68058,0,0,1-1.39163,5.451,10.15371,10.15371,0,0,1-3.77365,3.77365A10.68429,10.68429,0,0,1,51.05444,176.8413Zm0-2.66771a7.6934,7.6934,0,0,0,3.96538-1.02975,7.31477,7.31477,0,0,0,2.74389-2.82135,8.27172,8.27172,0,0,0,.99166-4.07839,8.3802,8.3802,0,0,0-.99166-4.09743,7.27912,7.27912,0,0,0-2.74389-2.84039,8.14734,8.14734,0,0,0-7.92949,0,7.40662,7.40662,0,0,0-2.76294,2.84039,8.25386,8.25386,0,0,0-1.01071,4.09743,8.14736,8.14736,0,0,0,1.01071,4.07839,7.44446,7.44446,0,0,0,2.76294,2.82135A7.68874,7.68874,0,0,0,51.05444,174.17359Z"/><path d="M76.4415,176.87939a10.22216,10.22216,0,0,1-4.8415-1.125,8.2617,8.2617,0,0,1-3.37368-3.29623,10.55154,10.55154,0,0,1-1.238-5.2986V157.248a1.431,1.431,0,0,1,1.44876-1.44877,1.44481,1.44481,0,0,1,1.06658.419,1.40317,1.40317,0,0,1,.419,1.02975v9.91154a7.58208,7.58208,0,0,0,.89643,3.88793,5.71388,5.71388,0,0,0,2.43916,2.28679,7.76529,7.76529,0,0,0,3.488.76311,7.67148,7.67148,0,0,0,3.37368-.725,6.01575,6.01575,0,0,0,2.38329-1.982,4.88366,4.88366,0,0,0,.87612-2.85945h2.09633a8.49751,8.49751,0,0,1-4.53549,7.26288A9.35251,9.35251,0,0,1,76.4415,176.87939Zm8.38659-.22855a1.41955,1.41955,0,0,1-1.0488-.4,1.47,1.47,0,0,1-.4-1.0869V157.248a1.37312,1.37312,0,0,1,1.44877-1.44877,1.48729,1.48729,0,0,1,1.06784.4,1.38483,1.38483,0,0,1,.419,1.0488V175.164a1.43277,1.43277,0,0,1-.419,1.0869A1.48728,1.48728,0,0,1,84.82809,176.65084Z"/><path d="M94.62535,176.65084a1.32316,1.32316,0,0,1-1.44876-1.44876V157.248a1.45119,1.45119,0,1,1,2.89753,0v17.954a1.32471,1.32471,0,0,1-1.44877,1.44876ZM94.3968,163.805a8.90927,8.90927,0,0,1,1.238-4.232,8.34473,8.34473,0,0,1,2.93563-2.93562,7.772,7.772,0,0,1,4.02124-1.06658,5.98559,5.98559,0,0,1,2.70707.4952,1.19677,1.19677,0,0,1,.72375,1.44876,1.12889,1.12889,0,0,1-.51424.76184,1.57644,1.57644,0,0,1-.87612.15237q-.51613-.03618-1.16307-.07618a8.48013,8.48013,0,0,0-3.7927.43933,5.75,5.75,0,0,0-2.63088,1.92491,5.00145,5.00145,0,0,0-.97135,3.088Z"/><path d="M112.69366,151.83517a1.97659,1.97659,0,0,1-1.44876-.61075,2.02234,2.02234,0,0,1-.60947-1.48685,1.90029,1.90029,0,0,1,.62851-1.50464,2.15913,2.15913,0,0,1,1.46782-.5536,2.10886,2.10886,0,0,1,1.42972.5536,1.90029,1.90029,0,0,1,.62851,1.50464,2.0832,2.0832,0,0,1-2.09633,2.0976Zm.0381,24.81567a1.38236,1.38236,0,0,1-1.48686-1.48686V157.28613a1.38237,1.38237,0,0,1,1.48686-1.48686,1.41958,1.41958,0,0,1,1.0488.4,1.47,1.47,0,0,1,.4,1.08689V175.164a1.47,1.47,0,0,1-.4,1.0869A1.41957,1.41957,0,0,1,112.73176,176.65084Z"/><path d="M131.10353,176.8413a10.875,10.875,0,0,1-5.47-1.35353,9.72111,9.72111,0,0,1-3.73556-3.75461,10.981,10.981,0,0,1-1.35353-5.48906,11.47548,11.47548,0,0,1,1.27735-5.5081,9.6377,9.6377,0,0,1,3.526-3.7546,9.74825,9.74825,0,0,1,5.18432-1.37259,9.495,9.495,0,0,1,5.051,1.31545,8.88447,8.88447,0,0,1,3.33559,3.64033,11.54087,11.54087,0,0,1,1.18212,5.29859,1.27745,1.27745,0,0,1-.38219.97135,1.37433,1.37433,0,0,1-.99039.36314H122.52648v-2.44042H139.033l-1.63922,1.18212a8.71988,8.71988,0,0,0-.79994-3.96411,6.533,6.533,0,0,0-2.38329-2.74516,6.66342,6.66342,0,0,0-3.67842-.99167,7.01808,7.01808,0,0,0-3.81174,1.02976,6.86515,6.86515,0,0,0-2.53566,2.84039,9.20742,9.20742,0,0,0-.89516,4.13552,8.225,8.225,0,0,0,1.01071,4.11648,7.44453,7.44453,0,0,0,2.76294,2.82135,7.83719,7.83719,0,0,0,4.04029,1.02975,8.46535,8.46535,0,0,0,2.76421-.47742,6.70663,6.70663,0,0,0,2.22966-1.19989,1.55657,1.55657,0,0,1,.95357-.36315,1.34472,1.34472,0,0,1,.91421.287,1.41861,1.41861,0,0,1,.51551.99039,1.097,1.097,0,0,1-.43933.91548,10.36566,10.36566,0,0,1-3.201,1.77255A10.95318,10.95318,0,0,1,131.10353,176.8413Z"/><path d="M146.50541,176.65084a1.32316,1.32316,0,0,1-1.44877-1.44876V157.248a1.45119,1.45119,0,1,1,2.89753,0v17.954a1.32471,1.32471,0,0,1-1.44876,1.44876Zm-.22856-12.84589a8.90938,8.90938,0,0,1,1.238-4.232,8.34481,8.34481,0,0,1,2.93563-2.93562,7.772,7.772,0,0,1,4.02124-1.06658,5.98566,5.98566,0,0,1,2.70708.4952,1.19679,1.19679,0,0,1,.72375,1.44876,1.1289,1.1289,0,0,1-.51425.76184,1.57641,1.57641,0,0,1-.87611.15237q-.51615-.03618-1.16308-.07618a8.48007,8.48007,0,0,0-3.79269.43933,5.75,5.75,0,0,0-2.63089,1.92491,5.00145,5.00145,0,0,0-.97135,3.088Z"/><path d="M110.94485,214.7915a13.73123,13.73123,0,0,1-4.43756-.69239A10.71327,10.71327,0,0,1,102.968,212.133a8.6829,8.6829,0,0,1-2.28553-2.9592,1.12669,1.12669,0,0,1-.01871-1.10534,1.48643,1.48643,0,0,1,.95563-.69239,1.358,1.358,0,0,1,1.03048.11228,1.73372,1.73372,0,0,1,.76725.786,6.0208,6.0208,0,0,0,1.648,1.94868,7.90132,7.90132,0,0,0,2.58494,1.32865,10.96847,10.96847,0,0,0,3.2948.46908,8.88842,8.88842,0,0,0,3.52185-.65621,5.51713,5.51713,0,0,0,2.41527-1.91,5.18239,5.18239,0,0,0,.87953-3.05278,5.30992,5.30992,0,0,0-1.68545-3.9323,8.9859,8.9859,0,0,0-5.28091-2.09714,12.2717,12.2717,0,0,1-6.85408-2.71593,6.90863,6.90863,0,0,1-2.47141-5.37447,6.59277,6.59277,0,0,1,1.21762-3.96973,7.84156,7.84156,0,0,1,3.35218-2.60365,12.32664,12.32664,0,0,1,4.9054-.917,10.14962,10.14962,0,0,1,6.68565,2.37785,9.94391,9.94391,0,0,1,2.04225,2.34041,1.50864,1.50864,0,0,1,.24328,1.16148,1.30752,1.30752,0,0,1-.65622.86206,1.56285,1.56285,0,0,1-2.02229-.6375,8.477,8.477,0,0,0-1.40475-1.62931,6.25093,6.25093,0,0,0-2.041-1.21637,8.77015,8.77015,0,0,0-2.88435-.48779,8.15436,8.15436,0,0,0-4.75569,1.255,4.17346,4.17346,0,0,0-1.79773,3.6516,4.29563,4.29563,0,0,0,.67368,2.34042,5.327,5.327,0,0,0,2.22814,1.8364,14.11987,14.11987,0,0,0,4.17682,1.14151q4.68021.67556,6.94764,2.86564a7.58751,7.58751,0,0,1,2.26557,5.71132,8.44813,8.44813,0,0,1-.72982,3.59546,7.26458,7.26458,0,0,1-2.05972,2.64107,9.47937,9.47937,0,0,1-3.10891,1.62931A12.57006,12.57006,0,0,1,110.94485,214.7915Z"/><path d="M135.66394,214.60437a10.685,10.685,0,0,1-5.37448-1.3299,9.5513,9.5513,0,0,1-3.67031-3.689,10.78921,10.78921,0,0,1-1.3299-5.39319,11.275,11.275,0,0,1,1.25505-5.4119,9.46946,9.46946,0,0,1,3.46446-3.689,9.578,9.578,0,0,1,5.09378-1.34861,9.32915,9.32915,0,0,1,4.96278,1.29247,8.72931,8.72931,0,0,1,3.27733,3.57675,11.33935,11.33935,0,0,1,1.16147,5.20605,1.25511,1.25511,0,0,1-.37551.95438,1.35031,1.35031,0,0,1-.97309.35681H127.23669v-2.39781h16.21824l-1.6106,1.16148a8.5676,8.5676,0,0,0-.786-3.89488,6.41891,6.41891,0,0,0-2.34166-2.69721,6.54712,6.54712,0,0,0-3.61417-.97435,6.89553,6.89553,0,0,0-3.74517,1.01177A6.74522,6.74522,0,0,0,128.866,200.129a9.04654,9.04654,0,0,0-.87953,4.06329,8.08129,8.08129,0,0,0,.99306,4.04458,7.31439,7.31439,0,0,0,2.71468,2.77207,7.70036,7.70036,0,0,0,3.96973,1.01177,8.31763,8.31763,0,0,0,2.71593-.46908,6.58949,6.58949,0,0,0,2.19071-1.17894,1.52937,1.52937,0,0,1,.93691-.3568,1.32121,1.32121,0,0,1,.89824.28194,1.39379,1.39379,0,0,1,.50651.9731,1.07781,1.07781,0,0,1-.43165.89949,10.18492,10.18492,0,0,1-3.14509,1.74159A10.762,10.762,0,0,1,135.66394,214.60437Z"/><path d="M150.7968,214.41724a1.30006,1.30006,0,0,1-1.42346-1.42347V195.35332a1.42584,1.42584,0,1,1,2.84692,0v17.64045a1.30157,1.30157,0,0,1-1.42346,1.42347Zm-.22456-12.62154a8.75358,8.75358,0,0,1,1.21637-4.1581,8.19892,8.19892,0,0,1,2.88435-2.88435,7.6362,7.6362,0,0,1,3.951-1.048,5.88113,5.88113,0,0,1,2.65979.48654,1.17589,1.17589,0,0,1,.71111,1.42347,1.10915,1.10915,0,0,1-.50526.74853,1.549,1.549,0,0,1-.86081.14971q-.50714-.03557-1.14276-.07486a8.33222,8.33222,0,0,0-3.72646.43166,5.6496,5.6496,0,0,0-2.58493,1.8913,4.914,4.914,0,0,0-.95439,3.03405Z"/><path d="M168.54954,190.035a1.94209,1.94209,0,0,1-1.42347-.60008,1.98708,1.98708,0,0,1-.59882-1.46089,1.86706,1.86706,0,0,1,.61754-1.47835,2.12139,2.12139,0,0,1,1.44217-.54394,2.072,2.072,0,0,1,1.40475.54394,1.86706,1.86706,0,0,1,.61754,1.47835,2.0468,2.0468,0,0,1-2.05971,2.061Zm.03742,24.38225a1.35823,1.35823,0,0,1-1.46089-1.46089v-17.5656a1.35823,1.35823,0,0,1,1.46089-1.46089,1.39473,1.39473,0,0,1,1.03048.393,1.4443,1.4443,0,0,1,.393,1.06791v17.5656a1.4443,1.4443,0,0,1-.393,1.06791A1.39477,1.39477,0,0,1,168.587,214.41724Z"/><path d="M186.63911,214.60437a10.68492,10.68492,0,0,1-5.37447-1.3299,9.55126,9.55126,0,0,1-3.67032-3.689,10.7892,10.7892,0,0,1-1.32989-5.39319,11.275,11.275,0,0,1,1.255-5.4119,9.46941,9.46941,0,0,1,3.46447-3.689,9.578,9.578,0,0,1,5.09377-1.34861,9.32915,9.32915,0,0,1,4.96278,1.29247,8.72924,8.72924,0,0,1,3.27733,3.57675,11.33922,11.33922,0,0,1,1.16148,5.20605,1.25508,1.25508,0,0,1-.37552.95438,1.35029,1.35029,0,0,1-.97309.35681H178.21186v-2.39781H194.4301l-1.61059,1.16148a8.56774,8.56774,0,0,0-.786-3.89488,6.419,6.419,0,0,0-2.34167-2.69721,6.54712,6.54712,0,0,0-3.61417-.97435,6.89555,6.89555,0,0,0-3.74517,1.01177,6.74529,6.74529,0,0,0-2.49137,2.79079,9.04654,9.04654,0,0,0-.87952,4.06329,8.08139,8.08139,0,0,0,.99305,4.04458,7.31446,7.31446,0,0,0,2.71468,2.77207,7.70038,7.70038,0,0,0,3.96973,1.01177,8.31759,8.31759,0,0,0,2.71593-.46908,6.58929,6.58929,0,0,0,2.19071-1.17894,1.52938,1.52938,0,0,1,.93692-.3568,1.32123,1.32123,0,0,1,.89824.28194,1.39387,1.39387,0,0,1,.50651.9731,1.07785,1.07785,0,0,1-.43166.89949,10.18481,10.18481,0,0,1-3.14509,1.74159A10.762,10.762,0,0,1,186.63911,214.60437Z"/><path d="M207.50076,214.60437a13.36123,13.36123,0,0,1-4.38142-.74853,8.22862,8.22862,0,0,1-3.52061-2.2481,1.2,1.2,0,0,1-.33809-1.01052,1.51732,1.51732,0,0,1,.56265-.97434,1.49271,1.49271,0,0,1,2.02229.18713,5.72778,5.72778,0,0,0,2.37784,1.6106,9.17269,9.17269,0,0,0,3.27734.56264,6.622,6.622,0,0,0,4.0084-.95563,2.94509,2.94509,0,0,0,1.2725-2.303,2.62715,2.62715,0,0,0-1.2725-2.22938,10.839,10.839,0,0,0-4.19554-1.36607,11.27093,11.27093,0,0,1-5.54289-2.09839,4.53385,4.53385,0,0,1-1.7603-3.558A4.9626,4.9626,0,0,1,201.021,196.289a6.13017,6.13017,0,0,1,2.69721-1.91,10.42072,10.42072,0,0,1,3.70774-.63626,10.02464,10.02464,0,0,1,4.32653.86082,7.91318,7.91318,0,0,1,2.93924,2.32295,1.3177,1.3177,0,0,1,.30067,1.01052,1.21816,1.21816,0,0,1-.60008.86206,1.50663,1.50663,0,0,1-1.02923.16842,1.67569,1.67569,0,0,1-.99306-.54268,5.688,5.688,0,0,0-2.172-1.59189,7.45957,7.45957,0,0,0-2.84692-.50651,5.76142,5.76142,0,0,0-3.296.84335,2.49449,2.49449,0,0,0-1.23632,2.11586,2.45218,2.45218,0,0,0,.46908,1.49832,3.78731,3.78731,0,0,0,1.61059,1.124,14.4306,14.4306,0,0,0,3.20248.82339,14.22086,14.22086,0,0,1,4.43756,1.3299,5.76176,5.76176,0,0,1,2.3217,2.05971,4.97119,4.97119,0,0,1,.69365,2.56623,4.89392,4.89392,0,0,1-1.03049,3.089,6.75881,6.75881,0,0,1-2.84567,2.07968A10.89445,10.89445,0,0,1,207.50076,214.60437Z"/><circle class="cls-2" cx="76.89398" cy="79.56024" r="72.73109"/><polyline class="cls-2" points="76.894 79.56 149.303 72.723 173.653 89.905 161.81 50.438 178.66 56.964 158.073 28.062"/><ellipse class="cls-2" cx="149.59327" cy="72.9272" rx="29.09243" ry="29.44725" transform="translate(3.90564 153.37369) rotate(-54.8962)"/><circle class="cls-2" cx="173.65346" cy="89.90514" r="41.19693"/><circle class="cls-2" cx="161.92739" cy="50.49151" r="17.90821"/><circle class="cls-2" cx="178.66021" cy="56.96368" r="35.55742"/></g></g></svg>