<svg xmlns="http://www.w3.org/2000/svg" viewBox="0 0 219.01944 218.71572"><defs><style>.cls-1,.cls-2,.cls-3,.cls-4{fill:none;}.cls-2,.cls-3,.cls-4{stroke:#000;stroke-width:3px;}.cls-2,.cls-3{stroke-linecap:round;}.cls-2{stroke-miterlimit:10;}.cls-3,.cls-4{stroke-linejoin:round;}</style></defs><title>Fourier Transform</title><g id="Layer_2" data-name="Layer 2"><g id="Layer_1-2" data-name="Layer 1"><rect class="cls-1" width="219.01944" height="218.71572"/><polyline class="cls-2" points="209.549 180.142 9.549 180.142 9.629 100.142"/><line class="cls-2" x1="46.54943" y1="149.14214" x2="46.54943" y2="180.14214"/><line class="cls-2" x1="85.54943" y1="164.14214" x2="85.54943" y2="180.14214"/><line class="cls-2" x1="120.54943" y1="149.14214" x2="120.54943" y2="180.14214"/><line class="cls-2" x1="162.54943" y1="133.14214" x2="162.54943" y2="180.14214"/><path d="M10.1269,206.67024a.63624.63624,0,0,1-.65689-.65788v-15.799a.63775.63775,0,0,1,.65689-.65789h10.541a.648.648,0,0,1,.46.187.6183.6183,0,0,1,.19687.47091.67458.67458,0,0,1-.65689.65788H10.78478v6.57387H18.0383a.6362.6362,0,0,1,.65689.65689.67568.67568,0,0,1-.186.48179.62215.62215,0,0,1-.4709.19786H10.78478v7.23076a.6363.6363,0,0,1-.65788.65788Z"/><path d="M29.76145,206.80182a6.18266,6.18266,0,0,1-3.144-.80034,5.82506,5.82506,0,0,1-2.19129-2.19129,6.53463,6.53463,0,0,1,0-6.26719,5.84621,5.84621,0,0,1,2.19129-2.19129,6.56313,6.56313,0,0,1,6.27807,0A5.88916,5.88916,0,0,1,35.076,197.543a6.54173,6.54173,0,0,1,0,6.26719,5.86761,5.86761,0,0,1-2.18041,2.19129A6.13059,6.13059,0,0,1,29.76145,206.80182Zm0-1.22772a4.66947,4.66947,0,0,0,4.17483-2.399,5.30992,5.30992,0,0,0,0-4.99594,4.67285,4.67285,0,0,0-4.17483-2.4,4.7406,4.7406,0,0,0-4.18571,2.4,5.22982,5.22982,0,0,0,0,4.99594,4.73711,4.73711,0,0,0,4.18571,2.399Z"/><path d="M44.48712,206.82358a6.06362,6.06362,0,0,1-2.82642-.646,4.86105,4.86105,0,0,1-1.98353-1.89549,5.9136,5.9136,0,0,1-.73406-3.046v-5.89521a.6575.6575,0,1,1,1.31477,0V201.236a4.63065,4.63065,0,0,0,.559,2.37728,3.55321,3.55321,0,0,0,1.51165,1.42458,5.163,5.163,0,0,0,4.28464.01089,3.83839,3.83839,0,0,0,1.48988-1.2386,2.98891,2.98891,0,0,0,.54807-1.76392h1.09515a4.89327,4.89327,0,0,1-.81023,2.44356,5.2096,5.2096,0,0,1-1.87373,1.70951A5.30672,5.30672,0,0,1,44.48712,206.82358Zm4.82084-.15334a.63625.63625,0,0,1-.65689-.65788V195.34083a.62829.62829,0,0,1,.186-.48179.73672.73672,0,0,1,.95368,0,.65212.65212,0,0,1,.1751.48179v10.67153a.66159.66159,0,0,1-.1751.47189A.63414.63414,0,0,1,49.308,206.67024Z"/><path d="M54.56706,206.67024a.63625.63625,0,0,1-.6569-.65788V195.34083a.62833.62833,0,0,1,.186-.48179.65915.65915,0,0,1,.47091-.17511.60728.60728,0,0,1,.65788.6569v10.67153a.66226.66226,0,0,1-.1761.47189A.63037.63037,0,0,1,54.56706,206.67024Zm-.21864-7.31881a5.93546,5.93546,0,0,1,.76671-2.48709,4.7686,4.7686,0,0,1,1.64322-1.69862,4.21739,4.21739,0,0,1,2.23482-.61336,3.38058,3.38058,0,0,1,1.293.19687.55712.55712,0,0,1,.3512.70141.45385.45385,0,0,1-.30669.39473,1.38912,1.38912,0,0,1-.58071.01088,4.76325,4.76325,0,0,0-.75681-.0554,4.03853,4.03853,0,0,0-1.94991.461,3.41633,3.41633,0,0,0-1.33653,1.25937,3.4748,3.4748,0,0,0-.48179,1.8302Z"/><path d="M64.5817,192.16321a.96735.96735,0,0,1-.71229-.2958.99643.99643,0,0,1-.2958-.73406.90725.90725,0,0,1,.31756-.75582,1.12175,1.12175,0,0,1,.71229-.25227,1.09349,1.09349,0,0,1,.69053.25227.90726.90726,0,0,1,.31757.75582,1.01057,1.01057,0,0,1-1.02986,1.02986Zm.02176,14.507a.63625.63625,0,0,1-.65689-.65788V195.34083a.62833.62833,0,0,1,.186-.48179.65914.65914,0,0,1,.4709-.17511.60727.60727,0,0,1,.65788.6569v10.67153a.66225.66225,0,0,1-.17609.47189A.63039.63039,0,0,1,64.60346,206.67024Z"/><path d="M74.94655,206.78005a6.0369,6.0369,0,0,1-3.07869-.77857,5.56374,5.56374,0,0,1-2.11511-2.15766A6.38937,6.38937,0,0,1,68.986,200.688a6.68706,6.68706,0,0,1,.72318-3.16674,5.51775,5.51775,0,0,1,1.99442-2.15864,5.80338,5.80338,0,0,1,5.78441-.03265,5.261,5.261,0,0,1,1.95089,2.08148,6.451,6.451,0,0,1,.70141,3.05693.5841.5841,0,0,1-.17609.44914.64439.64439,0,0,1-.46.16521H69.86256V199.943h9.99288l-.96457.72317a5.38142,5.38142,0,0,0-.48178-2.52072,4.10792,4.10792,0,0,0-1.50175-1.7194,4.14979,4.14979,0,0,0-2.28924-.62523,4.03516,4.03516,0,0,0-2.22492.62523,4.32792,4.32792,0,0,0-1.53341,1.7194,5.51919,5.51919,0,0,0-.55895,2.54249,5.21463,5.21463,0,0,0,.5916,2.51974,4.386,4.386,0,0,0,1.64322,1.72038,4.6302,4.6302,0,0,0,2.41091.62425,5.27973,5.27973,0,0,0,1.72039-.2958,3.664,3.664,0,0,0,1.36918-.77759.62012.62012,0,0,1,.42738-.186.58394.58394,0,0,1,.42737.14246.605.605,0,0,1,.25227.43826.54741.54741,0,0,1-.20874.43826,5.54746,5.54746,0,0,1-1.82921,1.05162A6.22589,6.22589,0,0,1,74.94655,206.78005Z"/><path d="M83.64543,206.67024a.63624.63624,0,0,1-.65689-.65788V195.34083a.62832.62832,0,0,1,.186-.48179.65916.65916,0,0,1,.47091-.17511.60727.60727,0,0,1,.65788.6569v10.67153a.66229.66229,0,0,1-.17609.47189A.63041.63041,0,0,1,83.64543,206.67024Zm-.21864-7.31881a5.93546,5.93546,0,0,1,.76671-2.48709,4.7686,4.7686,0,0,1,1.64322-1.69862,4.21739,4.21739,0,0,1,2.23482-.61336,3.38055,3.38055,0,0,1,1.293.19687.55711.55711,0,0,1,.3512.70141.45385.45385,0,0,1-.30668.39473,1.38918,1.38918,0,0,1-.58072.01088,4.76325,4.76325,0,0,0-.75681-.0554,4.03847,4.03847,0,0,0-1.9499.461,3.41629,3.41629,0,0,0-1.33654,1.25937,3.4749,3.4749,0,0,0-.48179,1.8302Z"/><path d="M97.9546,190.73961a.59233.59233,0,1,1,0-1.18419h12.40281a.59233.59233,0,1,1,0,1.18419Zm6.2019,15.93063a.6378.6378,0,0,1-.65788-.65788V189.55542h1.31477v16.45694a.63625.63625,0,0,1-.65689.65788Z"/><path d="M110.83919,206.67024a.63625.63625,0,0,1-.65689-.65788V195.34083a.62833.62833,0,0,1,.186-.48179.65914.65914,0,0,1,.4709-.17511.60727.60727,0,0,1,.65788.6569v10.67153a.66225.66225,0,0,1-.17609.47189A.63039.63039,0,0,1,110.83919,206.67024Zm-.21863-7.31881a5.93545,5.93545,0,0,1,.7667-2.48709,4.7686,4.7686,0,0,1,1.64322-1.69862,4.21739,4.21739,0,0,1,2.23482-.61336,3.38051,3.38051,0,0,1,1.293.19687.55711.55711,0,0,1,.3512.70141.45384.45384,0,0,1-.30668.39473,1.38918,1.38918,0,0,1-.58072.01088,4.76325,4.76325,0,0,0-.75681-.0554,4.03847,4.03847,0,0,0-1.9499.461,3.41636,3.41636,0,0,0-1.33654,1.25937,3.4749,3.4749,0,0,0-.48179,1.8302Z"/><path d="M124.38166,206.80182a6.18263,6.18263,0,0,1-3.144-.80034,5.82506,5.82506,0,0,1-2.19129-2.19129,6.53463,6.53463,0,0,1,0-6.26719,5.84621,5.84621,0,0,1,2.19129-2.19129,6.56313,6.56313,0,0,1,6.27807,0,5.88916,5.88916,0,0,1,2.18041,2.19129,6.19821,6.19821,0,0,1,.79935,3.145l-.54807.87652a4.96247,4.96247,0,0,1-.73406,2.67307,5.31579,5.31579,0,0,1-1.98255,1.87373A5.79515,5.79515,0,0,1,124.38166,206.80182Zm0-1.22772a4.66947,4.66947,0,0,0,4.17483-2.399,5.30992,5.30992,0,0,0,0-4.99594,4.67285,4.67285,0,0,0-4.17483-2.4,4.7406,4.7406,0,0,0-4.18571,2.4,5.22975,5.22975,0,0,0,0,4.99594,4.73711,4.73711,0,0,0,4.18571,2.399Zm5.457,1.09614a.63629.63629,0,0,1-.65788-.65788v-4.00962l.41649-1.31477h.89828v5.32439a.66159.66159,0,0,1-.1751.47189A.63188.63188,0,0,1,129.83862,206.67024Z"/><path d="M134.43983,206.67024a.63625.63625,0,0,1-.65689-.65788V195.34083a.62833.62833,0,0,1,.186-.48179.65914.65914,0,0,1,.4709-.17511.60728.60728,0,0,1,.65789.6569v10.67153a.66226.66226,0,0,1-.1761.47189A.63039.63039,0,0,1,134.43983,206.67024Zm9.708,0a.6363.6363,0,0,1-.65788-.65788v-5.89423a4.61776,4.61776,0,0,0-.559-2.38816,3.56941,3.56941,0,0,0-1.51164-1.4137,4.81346,4.81346,0,0,0-2.15865-.4709,4.87038,4.87038,0,0,0-2.125.44914,3.71859,3.71859,0,0,0-1.49086,1.23761,3.04089,3.04089,0,0,0-.54708,1.77479h-1.09614a4.8842,4.8842,0,0,1,.81122-2.44257,5.17046,5.17046,0,0,1,1.88461-1.7095,5.3207,5.3207,0,0,1,2.56326-.62425,6.13883,6.13883,0,0,1,2.83829.646,4.78693,4.78693,0,0,1,1.98255,1.88461,5.96511,5.96511,0,0,1,.72318,3.05692v5.89423a.63625.63625,0,0,1-.6569.65788Z"/><path d="M152.60627,206.80182a7.5418,7.5418,0,0,1-2.38915-.4165,4.54525,4.54525,0,0,1-2.08148-1.40282.6017.6017,0,0,1-.14245-.4709.62181.62181,0,0,1,.274-.42738.61365.61365,0,0,1,.47091-.10981.63662.63662,0,0,1,.40561.24139,3.36045,3.36045,0,0,0,1.54429,1.04074,6.36121,6.36121,0,0,0,1.98354.2958,4.03071,4.03071,0,0,0,2.60778-.6569,1.97025,1.97025,0,0,0,.7667-1.53439,1.65906,1.65906,0,0,0-.82111-1.41272,6.13162,6.13162,0,0,0-2.53161-.80034,6.45066,6.45066,0,0,1-3.24291-1.1832,2.59387,2.59387,0,0,1-1.05162-2.03795,3.07463,3.07463,0,0,1,.54708-1.852,3.34827,3.34827,0,0,1,1.50175-1.13967,5.81268,5.81268,0,0,1,2.18041-.38285,5.40957,5.40957,0,0,1,2.51973.53619,4.61739,4.61739,0,0,1,1.665,1.43547.54223.54223,0,0,1,.12069.4719.61035.61035,0,0,1-.33933.40462.713.713,0,0,1-.46.06628.68269.68269,0,0,1-.41649-.26315,3.579,3.579,0,0,0-1.32566-1.0625,4.24827,4.24827,0,0,0-1.80843-.36209,3.44518,3.44518,0,0,0-2.14677.5916,1.7541,1.7541,0,0,0-.7677,1.42459,1.6208,1.6208,0,0,0,.31856.99721,2.37159,2.37159,0,0,0,1.04074.72317,8.445,8.445,0,0,0,1.92813.47091,7.52027,7.52027,0,0,1,2.5969.74494,3.44615,3.44615,0,0,1,1.35831,1.21683,2.87223,2.87223,0,0,1,.40561,1.479,2.67483,2.67483,0,0,1-.65788,1.79656,4.15835,4.15835,0,0,1-1.73127,1.17232A6.501,6.501,0,0,1,152.60627,206.80182Z"/><path d="M159.55311,196.30539a.59187.59187,0,1,1,0-1.1832h5.93775a.59187.59187,0,1,1,0,1.1832Zm2.36639,10.36485a.63781.63781,0,0,1-.65788-.65788V194.66217a7.07528,7.07528,0,0,1,.46-2.64142,3.84765,3.84765,0,0,1,1.43547-1.80744,4.3591,4.3591,0,0,1,2.48709-.65789.67893.67893,0,0,1,.48278.16522.6079.6079,0,0,1,0,.85376.679.679,0,0,1-.48278.16521,2.63779,2.63779,0,0,0-2.74925,1.91726,6.302,6.302,0,0,0-.29679,2.0053v11.35019a.63736.63736,0,0,1-.186.47189A.66775.66775,0,0,1,161.9195,206.67024Z"/><path d="M173.31421,206.80182a6.18263,6.18263,0,0,1-3.144-.80034,5.82506,5.82506,0,0,1-2.19129-2.19129,6.53463,6.53463,0,0,1,0-6.26719,5.84621,5.84621,0,0,1,2.19129-2.19129,6.56313,6.56313,0,0,1,6.27807,0,5.88916,5.88916,0,0,1,2.18041,2.19129,6.54173,6.54173,0,0,1,0,6.26719,5.86761,5.86761,0,0,1-2.18041,2.19129A6.13059,6.13059,0,0,1,173.31421,206.80182Zm0-1.22772a4.66947,4.66947,0,0,0,4.17483-2.399,5.30992,5.30992,0,0,0,0-4.99594,4.67285,4.67285,0,0,0-4.17483-2.4,4.7406,4.7406,0,0,0-4.18571,2.4,5.22975,5.22975,0,0,0,0,4.99594,4.73711,4.73711,0,0,0,4.18571,2.399Z"/><path d="M183.37139,206.67024a.63625.63625,0,0,1-.65689-.65788V195.34083a.62833.62833,0,0,1,.186-.48179.65914.65914,0,0,1,.4709-.17511.60728.60728,0,0,1,.65789.6569v10.67153a.66226.66226,0,0,1-.1761.47189A.63039.63039,0,0,1,183.37139,206.67024Zm-.21863-7.31881a5.93559,5.93559,0,0,1,.7667-2.48709,4.7686,4.7686,0,0,1,1.64322-1.69862,4.21744,4.21744,0,0,1,2.23482-.61336,3.38051,3.38051,0,0,1,1.293.19687.55711.55711,0,0,1,.3512.70141.45384.45384,0,0,1-.30668.39473,1.38917,1.38917,0,0,1-.58072.01088,4.76307,4.76307,0,0,0-.75681-.0554,4.03849,4.03849,0,0,0-1.9499.461,3.41636,3.41636,0,0,0-1.33654,1.25937,3.47489,3.47489,0,0,0-.48178,1.8302Z"/><path d="M192.96954,206.67024a.63625.63625,0,0,1-.65689-.65788V195.34083a.62833.62833,0,0,1,.186-.48179.65914.65914,0,0,1,.4709-.17511.60727.60727,0,0,1,.65788.6569v10.67153a.66225.66225,0,0,1-.17609.47189A.63039.63039,0,0,1,192.96954,206.67024Zm7.95493,0a.6363.6363,0,0,1-.65788-.65788v-6.33248a4.19181,4.19181,0,0,0-.8874-2.76113,2.85855,2.85855,0,0,0-2.312-1.07338,3.3019,3.3019,0,0,0-3.43979,3.46154h-1.09614a5.50513,5.50513,0,0,1,.66877-2.47621,4.52125,4.52125,0,0,1,1.61057-1.68674,4.25616,4.25616,0,0,1,2.25659-.61337,4.19354,4.19354,0,0,1,2.34463.65689,4.54191,4.54191,0,0,1,1.58881,1.81932,5.90463,5.90463,0,0,1,.58071,2.67308v6.33248a.66159.66159,0,0,1-.1751.47189A.63188.63188,0,0,1,200.92447,206.67024Zm7.88864,0a.63781.63781,0,0,1-.65788-.65788v-6.33248a4.19181,4.19181,0,0,0-.8874-2.76113,2.85854,2.85854,0,0,0-2.312-1.07338,3.25879,3.25879,0,0,0-2.46532.99721,3.5786,3.5786,0,0,0-.90917,2.684h-1.31477a5.73384,5.73384,0,0,1,.65788-2.62955,4.49492,4.49492,0,0,1,1.665-1.74215,4.5449,4.5449,0,0,1,2.3664-.62425,4.1935,4.1935,0,0,1,2.34463.65689,4.53439,4.53439,0,0,1,1.58881,1.81932,5.9045,5.9045,0,0,1,.58072,2.67308v6.33248a.66155.66155,0,0,1-.17511.47189A.63187.63187,0,0,1,208.81311,206.67024Z"/><path class="cls-3" d="M154.57175,31.959c6.21816,15.519,10.8313,41.77242,28.56772,34.41562C193.21681,62.1947,193.351,43.36675,209.47,50.13925"/><path class="cls-3" d="M104.14788,27.81562c8.96358-10.14711,14.5516,3.69406,24.64986,17.25008,7.4454,9.99475,14.85845-28.6073,21.28851-21.30892a29.20647,29.20647,0,0,1,4.4855,8.20222"/><path class="cls-4" d="M9.47,67.38933c21.08027-51.54214,32.05758-57.0997,38.09524-53.77966C61.711,21.38827,59.362,83.73835,72.21511,87.68354c9.51526,2.92064,10.965-36.13168,31.93277-59.86792"/><polyline class="cls-2" points="9.549 11.892 9.549 91.892 209.549 91.892"/></g></g></svg>