<svg id="Layer_1" data-name="Layer 1" xmlns="http://www.w3.org/2000/svg" viewBox="0 0 495.41164 504.79762"><defs><style>.cls-1{fill:none;stroke:#000;stroke-miterlimit:10;}</style></defs><title>logo</title><path class="cls-1" d="M273.3786,143.67944a242.284,242.284,0,0,0-35.26875,24.01734A312.4471,312.4471,0,0,0,198.73,207.0766a92.3598,92.3598,0,0,1-15.7952,23.15192,29.84769,29.84769,0,0,1-5.40932,4.32745c-3.02025,2.03326-4.392,2.3797-5.62568,2.38007a5.81,5.81,0,0,1-3.89472-1.29822c-1.38565-1.25574-1.57825-3.06531-1.731-5.4093-.32213-4.944-.4832-7.4159-.21639-9.95319.63892-6.07587,1.068-10.15649,2.81286-15.5788,2.29225-7.12341,5.33953-11.85193,8.43853-16.6607a99.36951,99.36951,0,0,1,11.25138-14.28058,105.75891,105.75891,0,0,1,11.68411-10.81867,161.62988,161.62988,0,0,0-17.09343,12.766,153.99447,153.99447,0,0,0-19.47354,19.47357,108.515,108.515,0,0,0-13.4151,19.25714,80.76113,80.76113,0,0,0-7.573,18.608c-1.5574,5.95654-1.99063,10.6-2.59646,17.09345a124.19549,124.19549,0,0,0,1.29823,35.4851c.3786,2.14838,1.32131,6.28379,3.2067,14.55454,1.25738,5.51587,1.2425,11.29306,2.73239,16.7507.32329,1.18423,1.07409,3.79974-.11881,6.29639-.07109.14877-1.54258,3.13357-3.80159,3.20758-1.99124.06524-3.47-2.168-5.82116-5.82117a61.90757,61.90757,0,0,1-4.04753-7.65558c-.98633-2.11163-2.05419-4.62659-4.14963-9.57034-.83849-1.97824-.85314-2.02658-2.33975-5.54831-2.25156-5.33392-2.56875-6.05405-3.36509-7.95114-1.44247-3.43631-3.092-7.36594-4.63071-11.44846a104.025,104.025,0,0,1-4.158-12.3551,56.371,56.371,0,0,1-1.3068-18.17633,62.55027,62.55027,0,0,1,8.316-26.61109,80.82727,80.82727,0,0,0-10.57315,15.56275,84.49263,84.49263,0,0,0-7.24677,19.95831,79.09076,79.09076,0,0,0-1.42559,22.09668,87.90772,87.90772,0,0,0,5.10837,26.13587c.32706.87347,1.55332,4.09622,2.85119,8.55355,2.41922,8.30845,2.42195,11.75287,1.66319,14.73114-.507,1.99-1.13093,4.43912-3.20758,5.58356-3.5119,1.9354-8.4306-1.37491-9.74155-2.25717-3.63358-2.44537-4.44449-5.45813-8.19716-13.42435a132.74235,132.74235,0,0,0-6.67294-13.16049A75.72065,75.72065,0,0,0,72.143,290.21719a90.54926,90.54926,0,0,0-11.30948-8.94629,87.55206,87.55206,0,0,1,6.92073,13.16623,49.68216,49.68216,0,0,1,3.20717,9.4527,41.81247,41.81247,0,0,1,.844,9.28391c.00235,6.86938,1.46189,12.47638,3.88236,21.775,2.2753,8.74088,3.06752,6.60327,10.46548,25.48849,6.115,15.61,4.45653,14.21857,9.1151,25.48853a91.9246,91.9246,0,0,1,3.20717,10.1279c.95025,3.53628,1.96316,7.95792.844,12.82864-.49067,2.13547-1.14378,3.28055-2.19437,3.88236-1.7203.98544-3.89737.1654-5.23274-.33759a16.90332,16.90332,0,0,1-6.07673-3.88235l3.88235,7.76471a171.15541,171.15541,0,0,0,17.21741,21.94375c10.51788,11.28254,15.77682,16.92383,17.8926,18.90537,16.10281,15.08114,31.79228,23.52859,41.86193,28.8645,23.56143,12.48517,43.53823,17.77353,57.729,21.43735,15.51107,4.00473,38.82357,7.42712,38.82357,7.42712a121.03075,121.03075,0,0,0,.14377,22.71994,130.22651,130.22651,0,0,0,10.722,38.98627c5.90036,13.33955,16.245,25.444,16.245,25.444a78.43087,78.43087,0,0,1-.19571-15.65783c.562-7.8396,2.93094-17.21492,5.28452-17.22364,1.7135-.00634,2.41907,4.95577,4.69736,11.54767,4.006,11.59091,9.74072,19.15319,16.4407,27.98839,4.52219,5.96336,10.14554,13.37883,19.57233,20.74663,12.74826,9.96379,30.33706,15.65785,30.33706,15.65785s-3.90738-5.93983-10.07641-15.93932c-5.195-8.42056-7.71744-15.78771-12.76236-30.522-6.05149-17.67406-9.07721-26.51108-9.965-39.02964-.27765-3.91494-.2543-9.5301-.20758-20.76043.0412-9.90406.41519-23.6669.41519-23.6669a126.64582,126.64582,0,0,0,18.37937-.1547c9.552-.77594,16.87384-2.46719,25.68313-4.75842,18.80518-4.89105,28.20777-7.33661,39.75488-11.7536,10.96818-4.19556,28.35318-10.97107,48.22443-24.71716,17.87448-12.36481,29.22174-24.4629,36.98932-32.841a194.439,194.439,0,0,0,23.85291-31.45822,20.65321,20.65321,0,0,1-5.01258,2.59271c-1.97723.76178-3.513,1.33084-5.18542.86426a6.72921,6.72921,0,0,1-3.80262-3.457c-2.36581-4.36282-.351-9.86026.51856-12.27216,6.77338-18.78787,2.42761-12.26864,8.64233-26.79132,3.07782-7.19232,3.82117-8.03759,9.8523-21.77877,3.12121-7.1113,4.00769-9.35822,4.83972-12.61786,1.7168-6.72574.97046-9.02069,2.07422-18.149.82226-6.80014,1.46124-12.08441,3.62976-18.149a71.46255,71.46255,0,0,1,9.85229-18.66751,80.37824,80.37824,0,0,0-8.46954,6.22251c-4.646,4.13211-8.739,7.77243-13.13635,13.82776-3.6875,5.07788-6.1449,8.46179-7.77814,13.65493a41.09823,41.09823,0,0,1-2.59271,7.25962,27.01371,27.01371,0,0,1-5.35828,7.60528c-2.07342,1.99677-4.10788,3.956-7.25958,4.32117a7.27984,7.27984,0,0,1-5.18542-1.03708c-1.34671-1.01147-2.59034-3.02863-2.41987-8.98807.19022-6.64959,1.94541-11.36877,3.6298-16.4205,1.758-5.27261,3.55139-11.24469,4.494-15.03772a70.733,70.733,0,0,0-4.32119-48.74292,90.38446,90.38446,0,0,0-12.79071-21.0874,52.79244,52.79244,0,0,1,5.704,13.82782,57.56339,57.56339,0,0,1,1.9013,16.07477,70.32419,70.32419,0,0,1-2.59271,17.80328c-1.30142,5.12579-3.11462,9.63971-6.741,18.66751-3.86343,9.61786-3.37042,7.26053-7.25958,16.93906-2.0181,5.02221-5.22681,9.54916-6.91391,14.692-.542,1.6522-1.32636,4.26139-3.62979,5.35825-1.93485.92136-4.69763.65808-6.04965-.86423-1.57178-1.76974-.76187-4.7062-.17286-7.08673,1.37644-5.56293,1.27729-11.4544,2.93842-16.93905,4.03891-13.33533,4.10718-29.93015,4.14832-39.92771.04977-12.09967.07986-19.409-2.59272-29.03839-4.87756-17.5741-15.0614-29.56036-22.98867-38.89062a167.26555,167.26555,0,0,0-16.0748-16.24762A174.20042,174.20042,0,0,0,412.851,163.015a149.38442,149.38442,0,0,1,14.00064,15.03772c4.66172,5.65754,9.60505,11.74366,13.65494,20.91456,2.92078,6.614,3.88593,11.45642,5.18543,17.97613,1.96643,9.86585,1.29425,13.51849-.51856,16.24762-.46484.69977-2.45306,3.693-5.5311,3.97546-2.29766.21082-4.53585-1.15-8.46954-5.53106a82.70935,82.70935,0,0,1-9.67944-13.655c-2.84262-4.59583-5.46726-7.78839-10.71652-14.17346-6.18851-7.52753-11.26832-12.20972-21.08738-21.26026-4.16772-3.84149-9.89083-9.09643-17.97613-15.55621-5.42877-4.33734-9.43839-7.21277-17.45758-12.96356-8.50562-6.09961-15.21054-10.02515-15.21054-10.02515s2.85687,3.41644,7.7781,8.46954c.00006.00007,7.11478,7.30542,16.59336,18.14893a193.54179,193.54179,0,0,1,17.11187,22.81586,184.03371,184.03371,0,0,1,18.27637,37.43329,176.84309,176.84309,0,0,1,6.63764,23.78485c1.51828,7.506,2.16632,13.33227,2.58129,17.14727.47663,4.382.70023,7.685,1.29065,26.36615.62619,19.81311.58048,22.60929-.55313,27.28809-1.207,4.98178-3.44745,9.03693-7.92828,17.14722-1.21536,2.1998-2.53888,4.43622-5.16263,5.53137a10.15069,10.15069,0,0,1-9.40332-1.29065c-3.81393-2.70233-4.48895-7.44049-5.1626-12.169a47.70373,47.70373,0,0,1-.18438-13.27526,72.02273,72.02273,0,0,0-4.79386,12.72213,132.567,132.567,0,0,0-3.31881,18.25351,251.17387,251.17387,0,0,0-1.84379,25.25989c-.21926,10.49963.43509,10.56177-.18438,16.041-.95871,8.47956-3.23453,14.59812-5.53134,20.65043a117.42148,117.42148,0,0,1-14.01282,26.18179c-6.61624,9.31283-10.98975,12.57236-13.45966,14.19717a60.22539,60.22539,0,0,1-9.95645,4.79386q-1.66508-6.75788-3.68756-13.8284c-2.58652-9.00736-8.29706-25.44431-8.29706-25.44431a65.50738,65.50738,0,0,0-10.694.36878c-5.367.62634-12.64184,1.55011-20.09729,6.0845-3.23611,1.9682-7.46945,4.615-10.14084,9.77206a20.2985,20.2985,0,0,0-1.84381,10.32523,12.03717,12.03717,0,0,1,4.97824-4.60947c2.14225-1.03534,5.53519-1.54416,7.00641,0,1.7815,1.86982.06845,6.0394-1.84381,10.694a82.8924,82.8924,0,0,1-6.0845,11.06272A120.76156,120.76156,0,0,1,264.39273,449.174a122.047,122.047,0,0,1-19.1754-39.82583c-4.43941-16.4553-4.76634-32.08988-4.97822-42.22275a142.29842,142.29842,0,0,0-.73752-16.22534,97.95133,97.95133,0,0,0-7.92829-28.57874,45.01571,45.01571,0,0,1-.36876,13.09091c-.84755,5.46286-1.67091,10.76984-5.71574,12.90653-3.609,1.90646-8.1971.45141-10.87836-1.29065-2.73707-1.77832-4.15649-4.29065-6.45326-10.32523-3.02461-7.9469-4.53691-11.92035-5.53137-17.88473-.93974-5.63614-1.58443-12.91037,0-31.52881,1.27142-14.94049,1.90715-22.41077,4.24072-33.18817a186.26587,186.26587,0,0,1,10.5096-33.37256c1.79663-4.19739,7.95535-18.12512,21.01918-36.3227C257.334,158.02484,273.3786,143.67944,273.3786,143.67944Z" transform="translate(-58.99063 -141.21305)"/></svg>