<?xml version="1.0" encoding="utf-8"?>
<!-- Generator: Adobe Illustrator 24.0.3, SVG Export Plug-In . SVG Version: 6.00 Build 0)  -->
<svg version="1.1" id="Layer_1" xmlns="http://www.w3.org/2000/svg" xmlns:xlink="http://www.w3.org/1999/xlink" x="0px" y="0px"
	 viewBox="0 0 1920 1080" style="enable-background:new 0 0 1920 1080;" xml:space="preserve">
<style type="text/css">
	.st0{fill:none;stroke:#010101;stroke-miterlimit:10;}
</style>
<g>
	<path id="E1-MJMAIN-2135" class="st0" d="M637.8,198.2c0-25.7,2.6-47.1,7.7-64.2c5.1-17.1,10.7-27.8,16.7-32.1
		c6-4.3,10.7-6.9,14.1-7.7c7.7,0,11.6,5.6,11.6,16.7c3.4,42,20.6,81.8,51.4,119.5l357.2,389.3c3.4-22.3,11.1-70.2,23.1-143.9
		s19.3-121.6,21.8-143.9V319l-11.6-9c-26.6-24-43.7-43.3-51.4-57.8c-7.7-14.6-12-34.3-12.8-59.1c-0.9-24.8,1.7-45,7.7-60.4
		c6-15.4,11.6-25.7,16.7-30.8c5.1-5.1,9.9-7.7,14.1-7.7c6,0,9.9,4.3,11.6,12.8c1.7,7.7,13.3,28.7,34.7,63c21.4,34.3,36,55.2,43.7,63
		c1.7,1.7,5.1,4.7,10.3,9c5.1,4.3,12.4,11.1,21.8,20.6c9.4,9.4,19.7,19.3,30.8,29.6c15.4,20.6,23.1,43.3,23.1,68.1
		c0,23.1-2.6,42.8-7.7,59.1c-5.1,16.3-10.3,27-15.4,32.1c-5.1,5.1-9,8.1-11.6,9c-7.7,0-12.4-2.6-14.1-7.7
		c-1.7-5.1-3.4-13.7-5.1-25.7c-1.7-12-6-24-12.8-36c-9.4-15.4-15-23.1-16.7-23.1c-30.8,185.9-46.3,286.5-46.3,301.9
		c0,7.7,10.7,22.3,32.1,43.7c21.4,21.4,42.8,47.1,64.2,77.1c21.4,30,32.5,61.2,33.4,93.8c0,40.3-7.3,70.2-21.8,89.9
		c-6,6.9-12,10.3-18,10.3c-6.9,0-10.3-5.1-10.3-15.4c-3.4-42-20.6-81.8-51.4-119.5c-6.9-7.7-66.4-72.8-178.6-195.3
		s-173-188.4-182.4-197.9l-2.6,7.7c-1.7,4.3-3.4,9.4-5.1,15.4c-1.7,6-4.3,13.3-7.7,21.8c-3.4,8.6-6.4,19.3-9,32.1
		c-2.6,12.8-4.7,25.7-6.4,38.5c-1.7,12.8-3.4,29.1-5.1,48.8c-1.7,19.7-2.6,38.5-2.6,56.5c0,13.7,0.4,22.3,1.3,25.7
		c4.3,18,23.6,47.1,57.8,87.4c34.3,40.3,51.8,75.4,52.7,105.4c0,21.4-7.3,39-21.8,52.7s-28.3,22.7-41.1,27c-12.8,4.3-24.8,7.3-36,9
		c-4.3,0.9-30,1.3-77.1,1.3h-46.3c-16.3,0-25.3-1.3-27-3.9s-3-9.9-3.9-21.8c0-9.4,1.3-15.4,3.9-18c1.7-2.6,9.4-3.9,23.1-3.9
		c30.8-1.7,52.3-5.6,64.2-11.6c12-6,18-16.3,18-30.8c0-22.3-12-55.7-36-100.2s-36.4-82.2-37.3-113.1c0-38.5,8.1-80.5,24.4-125.9
		s32.5-81.8,48.8-109.2c16.3-27.4,24.4-41.5,24.4-42.4C682.3,316,637.8,247.1,637.8,198.2z"/>
</g>
</svg>
