<?xml version="1.0" encoding="utf-8"?>
<!-- Generator: Adobe Illustrator 24.0.3, SVG Export Plug-In . SVG Version: 6.00 Build 0)  -->
<svg version="1.1" id="Layer_1" xmlns="http://www.w3.org/2000/svg" xmlns:xlink="http://www.w3.org/1999/xlink" x="0px" y="0px"
	 viewBox="0 0 1920 1080" style="enable-background:new 0 0 1920 1080;" xml:space="preserve">
<style type="text/css">
	.st0{fill:none;stroke:#000000;stroke-miterlimit:10;}
</style>
<title>logo</title>
<path class="st0" d="M892.8,31.4c-25.2,14.1-49.2,30.4-71.5,48.7c-29,24.2-55.7,50.9-79.9,79.9c-8.2,17.2-19,33-32,47
	c-3.3,3.3-7,6.3-11,8.8c-6.1,4.1-8.9,4.8-11.4,4.8c-2.9,0.1-5.7-0.8-7.9-2.6c-2.8-2.5-3.2-6.2-3.5-11c-0.7-10-1-15-0.4-20.2
	c1.3-12.3,2.2-20.6,5.7-31.6c4.6-14.4,10.8-24,17.1-33.8c6.7-10.3,14.3-20,22.8-29c7.3-7.9,15.3-15.2,23.7-21.9
	c-12.1,7.9-23.7,16.5-34.7,25.9c-14.3,12-27.5,25.2-39.5,39.5c-10.5,12-19.6,25.1-27.2,39.1c-6.7,11.9-11.8,24.6-15.4,37.7
	c-3.2,12.1-4,21.5-5.3,34.7c-2.6,24-1.7,48.2,2.6,72c0.8,4.4,2.7,12.7,6.5,29.5c2.6,11.2,2.5,22.9,5.5,34c0.7,2.4,2.2,7.7-0.2,12.8
	c-0.1,0.3-3.1,6.4-7.7,6.5c-4,0.1-7-4.4-11.8-11.8c-3.1-5-5.8-10.2-8.2-15.5c-2-4.3-4.2-9.4-8.4-19.4c-1.7-4-1.7-4.1-4.7-11.3
	c-4.6-10.8-5.2-12.3-6.8-16.1c-2.9-7-6.3-14.9-9.4-23.2c-3.3-8.2-6.1-16.5-8.4-25.1c-2.9-12.1-3.8-24.5-2.7-36.9
	c1.5-19,7.3-37.5,16.9-54c-8.4,9.7-15.6,20.2-21.4,31.6c-6.6,12.8-11.5,26.4-14.7,40.5c-3.1,14.7-4,29.8-2.9,44.8
	c0.7,18.1,4.2,36,10.4,53c0.7,1.8,3.2,8.3,5.8,17.4c4.9,16.9,4.9,23.8,3.4,29.9c-1,4-2.3,9-6.5,11.3c-7.1,3.9-17.1-2.8-19.8-4.6
	c-7.4-5-9-11.1-16.6-27.2c-4-9.1-8.5-18.1-13.5-26.7c-7-11.1-15.4-21.2-25-30.1c-7.2-6.6-14.8-12.7-22.9-18.1
	c5.4,8.5,10.1,17.4,14,26.7c2.8,6.2,5,12.6,6.5,19.2c1.3,6.2,1.8,12.5,1.7,18.8c0,13.9,3,25.3,7.9,44.2c4.6,17.7,6.2,13.4,21.2,51.7
	c12.4,31.7,9,28.8,18.5,51.7c2.6,6.7,4.7,13.6,6.5,20.5c1.9,7.2,4,16.1,1.7,26c-1,4.3-2.3,6.7-4.5,7.9c-3.5,2-7.9,0.3-10.6-0.7
	c-4.6-1.7-8.8-4.4-12.3-7.9l7.9,15.8c10.4,15.8,22.1,30.7,34.9,44.5c21.3,22.9,32,34.3,36.3,38.3c32.7,30.6,64.5,47.7,84.9,58.6
	c47.8,25.3,88.3,36.1,117.1,43.5c31.5,8.1,78.8,15.1,78.8,15.1c-1.3,15.3-1.3,30.8,0.3,46.1c3.1,27.3,10.4,54,21.7,79.1
	c12,27.1,33,51.6,33,51.6c-1.2-10.5-1.3-21.2-0.4-31.8c1.1-15.9,5.9-34.9,10.7-34.9c3.5,0,4.9,10.1,9.5,23.4
	c8.1,23.5,19.8,38.9,33.4,56.8c9.2,12.1,20.6,27.1,39.7,42.1c25.9,20.2,61.5,31.8,61.5,31.8s-7.9-12-20.4-32.3
	c-10.5-17.1-15.7-32-25.9-61.9c-12.3-35.9-18.4-53.8-20.2-79.2c-0.6-7.9-0.5-19.3-0.4-42.1c0.1-20.1,0.8-48,0.8-48
	c12.4,0.8,24.9,0.7,37.3-0.3c19.4-1.6,34.2-5,52.1-9.7c38.1-9.9,57.2-14.9,80.6-23.8c22.2-8.5,57.5-22.3,97.8-50.1
	c36.3-25.1,59.3-49.6,75-66.6c18.3-19.6,34.5-41,48.4-63.8c-3.1,2.2-6.6,4-10.2,5.3c-4,1.5-7.1,2.7-10.5,1.8c-3.4-1.2-6.2-3.7-7.7-7
	c-4.8-8.9-0.7-20,1.1-24.9c13.7-38.1,4.9-24.9,17.5-54.3c6.2-14.6,7.8-16.3,20-44.2c6.3-14.4,8.1-19,9.8-25.6
	c3.5-13.6,2-18.3,4.2-36.8c1.7-13.8,3-24.5,7.4-36.8c4.8-13.5,11.5-26.3,20-37.9c-6,3.8-11.7,8-17.2,12.6
	c-9.4,8.4-17.7,15.8-26.6,28c-7.5,10.3-12.5,17.2-15.8,27.7c-1.3,5.1-3,10-5.3,14.7c-2.7,5.7-6.4,11-10.9,15.4
	c-4.2,4.1-8.3,8-14.7,8.8c-3.6,0.6-7.4-0.1-10.5-2.1c-2.7-2.1-5.3-6.1-4.9-18.2c0.4-13.5,3.9-23.1,7.4-33.3
	c3.6-10.7,7.2-22.8,9.1-30.5c8.9-33,5.8-68-8.8-98.9c-6.7-15.4-15.4-29.8-25.9-42.8c5.2,8.8,9.1,18.2,11.6,28
	c2.8,10.6,4.1,21.6,3.9,32.6c-0.2,12.2-2,24.4-5.3,36.1c-2.6,10.4-6.3,19.6-13.7,37.9c-7.8,19.5-6.8,14.7-14.7,34.4
	c-4.1,10.2-10.6,19.4-14,29.8c-1.1,3.4-2.7,8.6-7.4,10.9c-3.9,1.9-9.5,1.3-12.3-1.8c-3.2-3.6-1.5-9.5-0.4-14.4
	c2.8-11.3,2.6-23.2,6-34.4c8.2-27.1,8.3-60.7,8.4-81c0.1-24.5,0.2-39.4-5.3-58.9c-9.9-35.6-30.6-60-46.6-78.9
	c-10.1-11.7-21-22.7-32.6-33c-11.4-10.2-23.5-19.7-36.1-28.4c10.2,9.5,19.6,19.7,28.4,30.5c9.5,11.5,19.5,23.8,27.7,42.4
	c5.9,13.4,7.9,23.2,10.5,36.5c4,20,2.6,27.4-1.1,33c-0.9,1.4-5,7.5-11.2,8.1c-4.7,0.4-9.2-2.3-17.2-11.2c-7.5-8.5-14-17.8-19.6-27.7
	c-5.8-9.3-11.1-15.8-21.7-28.8c-12.6-15.3-22.9-24.8-42.8-43.1c-8.5-7.8-20.1-18.5-36.5-31.6c-11-8.8-19.1-14.6-35.4-26.3
	c-17.3-12.4-30.9-20.3-30.9-20.3s5.8,6.9,15.8,17.2c0,0,14.4,14.8,33.7,36.8c12.7,14.6,24.3,30,34.7,46.3
	c15.2,23.8,27.6,49.3,37.1,75.9c5.6,15.7,10.1,31.9,13.5,48.2c3.1,15.2,4.4,27,5.2,34.8c1,8.9,1.4,15.6,2.6,53.5
	c1.3,40.2,1.2,45.9-1.1,55.4c-2.4,10.1-7,18.3-16.1,34.8c-2.5,4.5-5.2,9-10.5,11.2c-6.4,2.3-13.5,1.4-19.1-2.6
	c-7.7-5.5-9.1-15.1-10.5-24.7c-1.4-8.9-1.5-18-0.4-26.9c-4,8.3-7.3,16.9-9.7,25.8c-3.1,12.2-5.4,24.5-6.7,37
	c-2.1,17-3.4,34.1-3.7,51.2c-0.4,21.3,0.9,21.4-0.4,32.5c-1.9,17.2-6.6,29.6-11.2,41.9c-7.2,18.8-16.7,36.7-28.4,53.1
	c-13.4,18.9-22.3,25.5-27.3,28.8c-6.4,3.9-13.2,7.1-20.2,9.7c-2.3-9.1-4.7-18.5-7.5-28.1c-5.2-18.3-16.8-51.6-16.8-51.6
	c-7.2-0.3-14.5-0.1-21.7,0.7c-10.9,1.3-25.6,3.1-40.8,12.3c-6.6,4-15.2,9.4-20.6,19.8c-3.1,6.5-4.3,13.8-3.7,20.9
	c2.4-4,5.9-7.3,10.1-9.4c4.3-2.1,11.2-3.1,14.2,0c3.6,3.8,0.1,12.3-3.7,21.7c-3.5,7.8-7.7,15.3-12.3,22.4
	c-9.4-9.3-18-19.3-25.8-29.9c-17.8-24.3-31-51.7-38.9-80.8c-9-33.4-9.7-65.1-10.1-85.6c0.1-11-0.4-22-1.5-32.9
	c-2.4-20-7.8-39.6-16.1-58c1,8.8,0.8,17.8-0.7,26.6c-1.7,11.1-3.4,21.8-11.6,26.2c-7.3,3.9-16.6,0.9-22.1-2.6
	c-5.6-3.6-8.4-8.7-13.1-20.9c-6.1-16.1-9.2-24.2-11.2-36.3c-1.9-11.4-3.2-26.2,0-64c2.6-30.3,3.9-45.5,8.6-67.3
	c5-23.2,12.1-45.8,21.3-67.7c3.6-8.5,16.1-36.8,42.6-73.7C860.3,60.5,892.8,31.4,892.8,31.4z"/>
</svg>
