<svg xmlns="http://www.w3.org/2000/svg" viewBox="0 0 175 175"><defs><style>.cls-1,.cls-2,.cls-3{fill:none;}.cls-1,.cls-2{stroke:#000;stroke-linejoin:round;stroke-width:5px;}.cls-2{stroke-linecap:round;}</style></defs><title>Coding</title><g id="Layer_2" data-name="Layer 2"><g id="Layer_1-2" data-name="Layer 1"><rect class="cls-1" x="12.79834" y="15" width="150" height="100" rx="10.74583"/><line class="cls-2" x1="75.48259" y1="104.47368" x2="100.48259" y2="27.47368"/><polyline class="cls-2" points="70.581 40.138 45.581 65.138 70.581 90.138"/><polyline class="cls-2" points="105.581 40.138 130.581 65.138 105.581 90.138"/><path d="M28.96853,158.62679a15.08237,15.08237,0,0,1-6.22474-1.303,16.5284,16.5284,0,0,1-5.14827-3.59814,17.22068,17.22068,0,0,1-3.51591-5.29355,16.0801,16.0801,0,0,1-1.28127-6.38969,16.45721,16.45721,0,0,1,1.2399-6.34832,16.831,16.831,0,0,1,3.45337-5.29355,16.21679,16.21679,0,0,1,5.14928-3.59814A15.43,15.43,0,0,1,28.96853,125.5a16.0988,16.0988,0,0,1,5.41764.9095,15.63106,15.63106,0,0,1,4.79718,2.77137.96357.96357,0,0,1,.37228.80609,1.3681,1.3681,0,0,1-.33091.91,1.12509,1.12509,0,0,1-.91.39295.93684.93684,0,0,1-.33091-.062,1.80231,1.80231,0,0,1-.3299-.16546,3.76548,3.76548,0,0,1-.37227-.26886,10.079,10.079,0,0,0-3.7641-2.15041,15.13078,15.13078,0,0,0-4.549-.66182,12.45989,12.45989,0,0,0-5.25218,1.1375,14.391,14.391,0,0,0-4.38355,3.10178,14.63577,14.63577,0,0,0-2.97819,4.487,13.45922,13.45922,0,0,0-1.07546,5.33491,13.96446,13.96446,0,0,0,1.07546,5.45951,14.42289,14.42289,0,0,0,2.957,4.50764,13.72563,13.72563,0,0,0,4.36337,3.03973,12.94964,12.94964,0,0,0,5.29355,1.09614,13.75822,13.75822,0,0,0,4.57019-.74455,13.04441,13.04441,0,0,0,3.99109-2.2745.89065.89065,0,0,1,.7849-.20682,1.45962,1.45962,0,0,1,.78591.41364,1.17386,1.17386,0,0,1,.33091.86813,2.349,2.349,0,0,1-.04136.455.82473.82473,0,0,1-.24818.41364,10.73546,10.73546,0,0,1-4.69327,2.79155A19.787,19.787,0,0,1,28.96853,158.62679Z"/><path d="M54.44455,158.46134a11.68644,11.68644,0,0,1-5.93519-1.50978A11.014,11.014,0,0,1,44.374,152.8162a12.34132,12.34132,0,0,1,0-11.828,11.02272,11.02272,0,0,1,4.13536-4.13587,12.383,12.383,0,0,1,11.84919,0,11.08619,11.08619,0,0,1,4.11519,4.13587,12.34139,12.34139,0,0,1,0,11.828,11.07738,11.07738,0,0,1-4.11519,4.13536A11.57638,11.57638,0,0,1,54.44455,158.46134Zm0-2.31586a8.816,8.816,0,0,0,7.87828-4.52883,10.021,10.021,0,0,0,0-9.42941,8.8143,8.8143,0,0,0-7.87828-4.52832,8.93974,8.93974,0,0,0-7.89946,4.52832,9.86494,9.86494,0,0,0,0,9.42941,8.94154,8.94154,0,0,0,7.89946,4.52883Z"/><path d="M82.52547,158.46134a11.68646,11.68646,0,0,1-5.93519-1.50978,11.014,11.014,0,0,1-4.13536-4.13536,12.382,12.382,0,0,1,0-11.84869,11.06651,11.06651,0,0,1,4.13536-4.11519,11.69137,11.69137,0,0,1,5.93519-1.50927,11.11215,11.11215,0,0,1,5.35509,1.28177,9.5838,9.5838,0,0,1,3.70155,3.43269V127.154a1.18859,1.18859,0,0,1,.3521-.91,1.24748,1.24748,0,0,1,.88881-.3304,1.14416,1.14416,0,0,1,1.24092,1.2404V147.1297a11.38243,11.38243,0,0,1-1.57183,5.78991,11.2583,11.2583,0,0,1-4.11518,4.05264A11.50964,11.50964,0,0,1,82.52547,158.46134Zm0-2.31586a8.816,8.816,0,0,0,7.87828-4.52883,9.46162,9.46162,0,0,0,1.17836-4.73514,9.352,9.352,0,0,0-1.17836-4.715,9.22352,9.22352,0,0,0-12.511-3.28791,9.00682,9.00682,0,0,0-3.26673,3.28791,9.222,9.222,0,0,0-1.19955,4.715,9.32967,9.32967,0,0,0,1.19955,4.73514,8.94157,8.94157,0,0,0,7.89946,4.52883Z"/><path d="M103.53421,130.83491a1.832,1.832,0,0,1-1.34382-.55841,1.88027,1.88027,0,0,1-.55891-1.38518,1.70971,1.70971,0,0,1,.60028-1.42705,2.10873,2.10873,0,0,1,1.34381-.47568,2.05512,2.05512,0,0,1,1.30246.47568,1.71256,1.71256,0,0,1,.60028,1.42705,1.90854,1.90854,0,0,1-1.9441,1.94359Zm.04136,27.37825a1.20334,1.20334,0,0,1-1.24091-1.24091V136.83164a1.18783,1.18783,0,0,1,.3521-.91,1.24565,1.24565,0,0,1,.88881-.33091,1.14487,1.14487,0,0,1,1.24092,1.24091v20.14061a1.24826,1.24826,0,0,1-.33091.88932A1.19014,1.19014,0,0,1,103.57557,158.21316Z"/><path d="M114.32813,158.21316a1.20334,1.20334,0,0,1-1.24092-1.24091V136.83164a1.18783,1.18783,0,0,1,.3521-.91,1.24568,1.24568,0,0,1,.88882-.33091,1.14487,1.14487,0,0,1,1.24091,1.24091v20.14061a1.24826,1.24826,0,0,1-.33091.88932A1.18863,1.18863,0,0,1,114.32813,158.21316Zm18.3211,0a1.20333,1.20333,0,0,1-1.24091-1.24091V145.84742a8.7257,8.7257,0,0,0-1.05427-4.50764,6.74185,6.74185,0,0,0-2.85309-2.668,9.08421,9.08421,0,0,0-4.07382-.88881,9.2199,9.2199,0,0,0-4.01229.84745,7.017,7.017,0,0,0-2.81172,2.33705,5.72887,5.72887,0,0,0-1.03409,3.35h-2.06819a9.22967,9.22967,0,0,1,1.53046-4.61155,9.77152,9.77152,0,0,1,3.55627-3.22587,10.05294,10.05294,0,0,1,4.83956-1.17836,11.57118,11.57118,0,0,1,5.35508,1.21972,9.03416,9.03416,0,0,1,3.74292,3.55678,11.27411,11.27411,0,0,1,1.365,5.76923v11.12483a1.2018,1.2018,0,0,1-1.24091,1.24091Z"/><path d="M151.25988,158.46134a11.86858,11.86858,0,0,1-5.99673-1.48909,10.81208,10.81208,0,0,1-4.095-4.094,11.798,11.798,0,0,1-1.48809-5.95537,11.621,11.621,0,0,1,1.52945-5.99673,11.06772,11.06772,0,0,1,4.15655-4.09451,12.574,12.574,0,0,1,11.86937,0,10.858,10.858,0,0,1,4.07383,4.09451,11.87123,11.87123,0,0,1,1.48909,5.99673l-1.44773,1.654a10.11476,10.11476,0,0,1-1.28228,5.1281,9.12385,9.12385,0,0,1-3.55627,3.49473A10.64713,10.64713,0,0,1,151.25988,158.46134Zm.16545,8.39532a11.96276,11.96276,0,0,1-9.84355-4.549,1.37053,1.37053,0,0,1-.33091-.86864.87515.87515,0,0,1,.41363-.74454,1.2052,1.2052,0,0,1,.97255-.24819,1.15572,1.15572,0,0,1,.84746.53773,10.31683,10.31683,0,0,0,3.26672,2.54337,10.15763,10.15763,0,0,0,4.6741,1.01341,8.50439,8.50439,0,0,0,4.56918-1.24091,8.77623,8.77623,0,0,0,3.16382-3.412,10.1613,10.1613,0,0,0,1.15819-4.85922v-6.57583l1.11682-1.53h1.365v8.10578a12.25089,12.25089,0,0,1-1.48909,6.03809,11.2049,11.2049,0,0,1-4.05264,4.23928A11.05051,11.05051,0,0,1,151.42533,166.85666Zm-.16545-10.71118a9.23391,9.23391,0,0,0,4.69327-1.17887,8.389,8.389,0,0,0,3.20518-3.26723,10.51485,10.51485,0,0,0,0-9.59487,8.39576,8.39576,0,0,0-3.20518-3.26723,9.23866,9.23866,0,0,0-4.69327-1.17836,9.35638,9.35638,0,0,0-4.71547,1.17836,8.358,8.358,0,0,0-3.22536,3.26723,10.51493,10.51493,0,0,0,0,9.59487,8.35132,8.35132,0,0,0,3.22536,3.26723A9.35154,9.35154,0,0,0,151.25988,156.14548Z"/><rect class="cls-3" width="175" height="175"/></g></g></svg>