<svg xmlns="http://www.w3.org/2000/svg" viewBox="0 0 153.01903 153.01903"><defs><style>.cls-1,.cls-2{fill:none;}.cls-1{stroke:#000;stroke-linecap:round;stroke-linejoin:round;stroke-width:3px;}</style></defs><title>Vectors</title><g id="Layer_2" data-name="Layer 2"><g id="Layer_1-2" data-name="Layer 1"><path d="M37.595,105.85377a.97591.97591,0,0,1-1.14746.1997L11.176,95.74976q-.82179-.323-.90918-.88476a1.09067,1.09067,0,0,1,.33593-.98584,1.10924,1.10924,0,0,1,1.248-.19922l24.37207,10.00293-.72363.72363L25.49534,80.23316a1.352,1.352,0,0,1-.16113-.81006,1.21807,1.21807,0,0,1,.36133-.63672.823.823,0,0,1,.97265-.22412,1.5404,1.5404,0,0,1,.79785.89746l10.32911,25.24659a1.08165,1.08165,0,0,1,.0625.686A1.09338,1.09338,0,0,1,37.595,105.85377Z"/><path d="M51.98948,91.70924a9.73221,9.73221,0,0,1-4.39062,2.61914,8.95007,8.95007,0,0,1-4.86426-.04981,10.28122,10.28122,0,0,1-4.46582-2.71972,10.76122,10.76122,0,0,1-2.78125-4.42774,8.87683,8.87683,0,0,1-.18652-4.72705A9.33632,9.33632,0,0,1,41.84886,75.781a8.45075,8.45075,0,0,1,4.59082.14942A10.38071,10.38071,0,0,1,50.718,78.61207a.95.95,0,0,1,.31152.71142,1.04316,1.04316,0,0,1-.33691.71045L39.716,91.01l-1.29687-1.29688,11.375-11.37549-.27441,1.9209a8.63846,8.63846,0,0,0-3.418-2.32031,6.60462,6.60462,0,0,0-3.666-.249,6.67546,6.67546,0,0,0-3.31836,1.8955,6.48759,6.48759,0,0,0-1.82129,3.24366,6.96869,6.96869,0,0,0,.21192,3.7041,8.88853,8.88853,0,0,0,2.25781,3.52978,8.40437,8.40437,0,0,0,3.542,2.19532,7.04292,7.04292,0,0,0,3.8291.08691A7.45718,7.45718,0,0,0,50.593,90.31275a8.56911,8.56911,0,0,0,1.62207-2.29541,5.91278,5.91278,0,0,0,.67187-2.4458,1.01124,1.01124,0,0,1,.27442-.69873.9553.9553,0,0,1,.64843-.32422.97369.97369,0,0,1,.78711.21338.87658.87658,0,0,1,.26172.73486,8.92823,8.92823,0,0,1-.88672,3.28028A10.00613,10.00613,0,0,1,51.98948,91.70924Z"/><path d="M66.70921,77.04078a9.367,9.367,0,0,1-4.4043,2.55615,9.46206,9.46206,0,0,1-4.915-.07519,10.0165,10.0165,0,0,1-4.42773-2.65625A10.718,10.718,0,0,1,50.218,72.47486a8.997,8.997,0,0,1-.21192-4.75244,8.62587,8.62587,0,0,1,2.40723-4.22852,9.71854,9.71854,0,0,1,3.53027-2.30713,8.76877,8.76877,0,0,1,4.1543-.43652.89442.89442,0,0,1,.67285.374.94158.94158,0,0,1,.125.77344.90774.90774,0,0,1-.3623.63574,1.022,1.022,0,0,1-.76074.1875,7.18848,7.18848,0,0,0-5.96192,2.16993,6.53963,6.53963,0,0,0-1.8584,3.30566,6.84727,6.84727,0,0,0,.249,3.69189,9.111,9.111,0,0,0,2.25781,3.48,8.36379,8.36379,0,0,0,3.50586,2.15869,7.30969,7.30969,0,0,0,3.85351.13623,7.22946,7.22946,0,0,0,3.49317-2.02,8.67641,8.67641,0,0,0,1.63281-2.2334,5.9877,5.9877,0,0,0,.66113-2.50684,1.22766,1.22766,0,0,1,.27442-.72363.81261.81261,0,0,1,.64941-.29883,1.019,1.019,0,0,1,.77344.24951.83557.83557,0,0,1,.27441.69825A9.14026,9.14026,0,0,1,66.70921,77.04078Z"/><path d="M80.90257,62.54664a7.13475,7.13475,0,0,1-3.08106,1.80859,6.09135,6.09135,0,0,1-3.36718-.0249,7.06546,7.06546,0,0,1-3.05567-1.85791L58.97483,50.04859a1.07482,1.07482,0,0,1-.34961-.77392,1.03045,1.03045,0,0,1,.32422-.748,1.03034,1.03034,0,0,1,1.54688,0L72.92015,60.95045A4.549,4.549,0,0,0,76.176,62.40992a4.40659,4.40659,0,0,0,3.22949-1.41016l.54883-.54883a1.03081,1.03081,0,0,1,1.54687.00049,1.02586,1.02586,0,0,1,.32422.748,1.069,1.069,0,0,1-.34961.773ZM62.44163,57.40748A.95286.95286,0,1,1,61.095,56.06031l6.75977-6.76074a.95321.95321,0,1,1,1.34765,1.34717Z"/><path d="M91.75511,51.99488a9.9703,9.9703,0,0,1-4.49121,2.66846,9.40267,9.40267,0,0,1-4.99024-.00049,10.52482,10.52482,0,0,1-7.13379-7.13428,9.40218,9.40218,0,0,1,0-4.98877,9.97169,9.97169,0,0,1,2.66895-4.49072,9.871,9.871,0,0,1,4.47851-2.65625,9.44645,9.44645,0,0,1,4.97657.01172,10.52233,10.52233,0,0,1,7.13379,7.13428,9.46027,9.46027,0,0,1,.01367,4.97753A9.8778,9.8778,0,0,1,91.75511,51.99488Zm-1.39746-1.39746a7.526,7.526,0,0,0,2.0205-7.48389,8.54788,8.54788,0,0,0-5.6875-5.688,7.52083,7.52083,0,0,0-7.48437,2.02051,7.632,7.632,0,0,0-2.0332,7.49658,8.4182,8.4182,0,0,0,5.6875,5.688,7.63251,7.63251,0,0,0,7.49707-2.0332Z"/><path d="M103.05491,40.39429a1.02672,1.02672,0,0,1-1.49707.00049L89.4094,28.24586a1.01088,1.01088,0,0,1-.33691-.76123,1.05846,1.05846,0,0,1,.33691-.73584.976.976,0,0,1,1.4961,0l12.14941,12.14892a1.0635,1.0635,0,0,1,.33692.73584A1.0169,1.0169,0,0,1,103.05491,40.39429Zm-8.582-8.08252a9.58943,9.58943,0,0,1-1.958-3.70459,7.66545,7.66545,0,0,1-.0625-3.80419,6.79221,6.79221,0,0,1,1.84571-3.24317,5.446,5.446,0,0,1,1.69628-1.24756.89694.89694,0,0,1,1.19825.39942.72633.72633,0,0,1,.09961.79834,2.24465,2.24465,0,0,1-.64844.67383,7.65826,7.65826,0,0,0-.92383.79785,6.51628,6.51628,0,0,0-1.69629,2.74414,5.50854,5.50854,0,0,0-.08691,2.956,5.5923,5.5923,0,0,0,1.53418,2.63184Z"/><path d="M118.02269,25.72681a12.16379,12.16379,0,0,1-3.19336,2.24463,7.3342,7.3342,0,0,1-3.9668.77295.97089.97089,0,0,1-.69824-.374.99582.99582,0,0,1-.17481-.79785.98543.98543,0,0,1,.41113-.66162,1.02475,1.02475,0,0,1,.73633-.187,5.418,5.418,0,0,0,2.94434-.57324,10.32135,10.32135,0,0,0,2.59473-1.92041q2.09472-2.09619,2.21972-3.71777a3.173,3.173,0,0,0-.873-2.61914,2.674,2.674,0,0,0-2.54493-.67432,9.87683,9.87683,0,0,0-3.792,1.97119,10.38252,10.38252,0,0,1-5.03906,2.34473,4.17972,4.17972,0,0,1-3.51758-1.12207,4.949,4.949,0,0,1-1.48437-2.73193,5.3887,5.3887,0,0,1,.41113-3.00635,9.37409,9.37409,0,0,1,2.0459-2.91846,8.69789,8.69789,0,0,1,3.48047-2.25781,7.451,7.451,0,0,1,3.52929-.26221.87309.87309,0,0,1,.67383.39942.98622.98622,0,0,1,.0752.84863,1.15985,1.15985,0,0,1-.44922.59814,1.09381,1.09381,0,0,1-.77344.17481,5.77948,5.77948,0,0,0-2.71875.29931,6.837,6.837,0,0,0-2.46973,1.64649,5.54415,5.54415,0,0,0-1.77148,3.11865,2.82292,2.82292,0,0,0,.749,2.49463,2.61639,2.61639,0,0,0,1.4961.77344,3.8463,3.8463,0,0,0,2.00878-.36182,13.5535,13.5535,0,0,0,2.73145-1.65918,12.05254,12.05254,0,0,1,3.80469-2.10742,5.5478,5.5478,0,0,1,2.93066-.16309,4.62466,4.62466,0,0,1,2.14453,1.22217A4.30586,4.30586,0,0,1,120.841,19.3147a6.69631,6.69631,0,0,1-.63574,3.30567A10.51289,10.51289,0,0,1,118.02269,25.72681Z"/><polyline class="cls-1" points="6.529 146.49 146.49 6.529 146.49 34.521"/><polyline class="cls-1" points="6.529 146.49 146.49 6.529 118.498 6.529"/><rect class="cls-2" width="153.01903" height="153.01903"/></g></g></svg>